_RobotoSerifText-HairlineWide.ufo
<glyph name="quotesingle" format="2">
  <advance width="283"/>
  <unicode hex="0027"/>
  <outline>
    <contour>
      <point x="166" y="710" type="line"/>
      <point x="166" y="626"/>
      <point x="158" y="583"/>
      <point x="158" y="457" type="curve"/>
      <point x="125" y="457" type="line"/>
      <point x="125" y="583"/>
      <point x="117" y="625"/>
      <point x="117" y="710" type="curve"/>
    </contour>
  </outline>
</glyph>
<glyph name="parenleft" format="2">
  <advance width="367"/>
  <unicode hex="0028"/>
  <outline>
    <contour>
      <point x="112" y="310" type="curve" smooth="yes"/>
      <point x="112" y="106"/>
      <point x="221" y="-48"/>
      <point x="335" y="-127" type="curve"/>
      <point x="335" y="-130" type="line"/>
      <point x="300" y="-130" type="line"/>
      <point x="178" y="-53"/>
      <point x="71" y="110"/>
      <point x="71" y="310" type="curve" smooth="yes"/>
      <point x="71" y="510"/>
      <point x="178" y="673"/>
      <point x="300" y="750" type="curve"/>
      <point x="335" y="750" type="line"/>
      <point x="335" y="747" type="line"/>
      <point x="221" y="668"/>
      <point x="112" y="514"/>
    </contour>
  </outline>
</glyph>
<glyph name="hyphen" format="2">
  <advance width="494"/>
  <unicode hex="002D"/>
  <outline>
    <contour>
      <point x="93" y="335" type="line"/>
      <point x="93" y="287" type="line"/>
      <point x="400" y="287" type="line"/>
      <point x="400" y="335" type="line"/>
    </contour>
  </outline>
</glyph>
<glyph name="two" format="2">
  <advance width="652"/>
  <unicode hex="0032"/>
  <outline>
    <contour>
      <point x="394" y="38" type="line" smooth="yes"/>
      <point x="495" y="38"/>
      <point x="536" y="45"/>
      <point x="541" y="81" type="curve" smooth="yes"/>
      <point x="551" y="166" type="line"/>
      <point x="579" y="166" type="line"/>
      <point x="579" y="0" type="line"/>
      <point x="65" y="0" type="line"/>
      <point x="65" y="44" type="line"/>
      <point x="304" y="168"/>
      <point x="511" y="283"/>
      <point x="511" y="440" type="curve" smooth="yes"/>
      <point x="511" y="543"/>
      <point x="435" y="587"/>
      <point x="326" y="587" type="curve" smooth="yes"/>
      <point x="231" y="587"/>
      <point x="163" y="551"/>
      <point x="112" y="508" type="curve"/>
      <point x="131" y="540"/>
      <point x="116" y="546"/>
      <point x="143" y="550" type="curve"/>
      <point x="143" y="452" type="line"/>
      <point x="92" y="452" type="line"/>
      <point x="92" y="542" type="line"/>
      <point x="134" y="575"/>
      <point x="215" y="618"/>
      <point x="326" y="618" type="curve" smooth="yes"/>
      <point x="463" y="618"/>
      <point x="555" y="553"/>
      <point x="555" y="440" type="curve" smooth="yes"/>
      <point x="555" y="277"/>
      <point x="315" y="133"/>
      <point x="101" y="27" type="curve"/>
      <point x="98" y="29"/>
      <point x="95" y="35"/>
      <point x="98" y="38" type="curve"/>
    </contour>
  </outline>
</glyph>
<glyph name="four" format="2">
  <advance width="652"/>
  <unicode hex="0034"/>
  <outline>
    <contour>
      <point x="55" y="112" type="line"/>
      <point x="633" y="112" type="line"/>
      <point x="633" y="148" type="line"/>
      <point x="76" y="148" type="line"/>
      <point x="80" y="125" type="line"/>
      <point x="458" y="603" type="line"/>
      <point x="471" y="609" type="line"/>
      <point x="417" y="609" type="line"/>
      <point x="55" y="151" type="line"/>
    </contour>
    <contour>
      <point x="479" y="-77" type="line"/>
      <point x="479" y="609" type="line"/>
      <point x="438" y="609" type="line"/>
      <point x="439" y="594" type="line"/>
      <point x="439" y="-77" type="line"/>
    </contour>
  </outline>
</glyph>
<glyph name="six" format="2">
  <advance width="652"/>
  <unicode hex="0036"/>
  <outline>
    <contour>
      <point x="515" y="709" type="line"/>
      <point x="278" y="673"/>
      <point x="104" y="503"/>
      <point x="104" y="287" type="curve" smooth="yes"/>
      <point x="104" y="112"/>
      <point x="201" y="21"/>
      <point x="339" y="21" type="curve" smooth="yes"/>
      <point x="474" y="21"/>
      <point x="556" y="116"/>
      <point x="556" y="234" type="curve" smooth="yes"/>
      <point x="556" y="345"/>
      <point x="481" y="428"/>
      <point x="353" y="428" type="curve" smooth="yes"/>
      <point x="239" y="428"/>
      <point x="142" y="354"/>
      <point x="88" y="266" type="curve"/>
      <point x="75" y="290" type="line"/>
      <point x="124" y="377"/>
      <point x="230" y="459"/>
      <point x="355" y="459" type="curve" smooth="yes"/>
      <point x="505" y="459"/>
      <point x="600" y="366"/>
      <point x="600" y="234" type="curve" smooth="yes"/>
      <point x="600" y="102"/>
      <point x="490" y="-10"/>
      <point x="339" y="-10" type="curve" smooth="yes"/>
      <point x="181" y="-10"/>
      <point x="60" y="102"/>
      <point x="60" y="287" type="curve" smooth="yes"/>
      <point x="60" y="503"/>
      <point x="242" y="704"/>
      <point x="510" y="740" type="curve"/>
    </contour>
  </outline>
</glyph>
<glyph name="B" format="2">
  <advance width="719"/>
  <unicode hex="0042"/>
  <outline>
    <contour>
      <point x="389" y="710" type="curve" smooth="yes"/>
      <point x="52" y="710" type="line"/>
      <point x="52" y="679" type="line"/>
      <point x="65" y="679" type="line" smooth="yes"/>
      <point x="122" y="679"/>
      <point x="164" y="672"/>
      <point x="164" y="643" type="curve" smooth="yes"/>
      <point x="164" y="67" type="line" smooth="yes"/>
      <point x="164" y="38"/>
      <point x="122" y="31"/>
      <point x="65" y="31" type="curve" smooth="yes"/>
      <point x="52" y="31" type="line"/>
      <point x="52" y="0" type="line"/>
      <point x="400" y="0" type="line" smooth="yes"/>
      <point x="561" y="0"/>
      <point x="658" y="73"/>
      <point x="658" y="191" type="curve" smooth="yes"/>
      <point x="658" y="296"/>
      <point x="571" y="366"/>
      <point x="407" y="381" type="curve"/>
      <point x="425" y="364" type="line"/>
      <point x="425" y="385" type="line"/>
      <point x="406" y="367" type="line"/>
      <point x="548" y="384"/>
      <point x="621" y="448"/>
      <point x="621" y="539" type="curve" smooth="yes"/>
      <point x="621" y="643"/>
      <point x="534" y="710"/>
    </contour>
    <contour>
      <point x="194" y="387" type="line"/>
      <point x="194" y="357" type="line"/>
      <point x="373" y="357" type="line" smooth="yes"/>
      <point x="529" y="357"/>
      <point x="611" y="289"/>
      <point x="611" y="192" type="curve" smooth="yes"/>
      <point x="611" y="89"/>
      <point x="538" y="31"/>
      <point x="401" y="31" type="curve" smooth="yes"/>
      <point x="205" y="31" type="line"/>
      <point x="205" y="679" type="line"/>
      <point x="389" y="679" type="line" smooth="yes"/>
      <point x="512" y="679"/>
      <point x="577" y="627"/>
      <point x="577" y="538" type="curve" smooth="yes"/>
      <point x="577" y="449"/>
      <point x="506" y="387"/>
      <point x="363" y="387" type="curve" smooth="yes"/>
    </contour>
  </outline>
</glyph>
<glyph name="D" format="2">
  <advance width="835"/>
  <unicode hex="0044"/>
  <anchor x="420" y="741" name="top"/>
  <anchor x="420" y="0" name="bottom"/>
  <outline>
    <contour>
      <point x="52" y="679" type="line"/>
      <point x="66" y="679" type="line" smooth="yes"/>
      <point x="124" y="679"/>
      <point x="166" y="670"/>
      <point x="166" y="643" type="curve" smooth="yes"/>
      <point x="166" y="67" type="line" smooth="yes"/>
      <point x="166" y="38"/>
      <point x="124" y="31"/>
      <point x="66" y="31" type="curve" smooth="yes"/>
      <point x="52" y="31" type="line"/>
      <point x="52" y="0" type="line"/>
      <point x="344" y="0" type="line" smooth="yes"/>
      <point x="622" y="0"/>
      <point x="780" y="141"/>
      <point x="780" y="357" type="curve" smooth="yes"/>
      <point x="780" y="574"/>
      <point x="622" y="710"/>
      <point x="344" y="710" type="curve" smooth="yes"/>
      <point x="52" y="710" type="line"/>
    </contour>
    <contour>
      <point x="344" y="679" type="line" smooth="yes"/>
      <point x="598" y="679"/>
      <point x="737" y="562"/>
      <point x="737" y="357" type="curve" smooth="yes"/>
      <point x="737" y="152"/>
      <point x="598" y="31"/>
      <point x="344" y="31" type="curve" smooth="yes"/>
      <point x="206" y="31" type="line"/>
      <point x="206" y="679" type="line"/>
    </contour>
  </outline>
</glyph>
<glyph name="I" format="2">
  <advance width="369"/>
  <unicode hex="0049"/>
  <anchor x="185" y="741" name="top"/>
  <anchor x="235" y="0" name="right"/>
  <anchor x="185" y="0" name="bottom"/>
  <outline>
    <contour>
      <point x="164" y="67" type="line" smooth="yes"/>
      <point x="164" y="38"/>
      <point x="122" y="31"/>
      <point x="65" y="31" type="curve" smooth="yes"/>
      <point x="52" y="31" type="line"/>
      <point x="52" y="0" type="line"/>
      <point x="316" y="0" type="line"/>
      <point x="316" y="31" type="line"/>
      <point x="304" y="31" type="line" smooth="yes"/>
      <point x="247" y="31"/>
      <point x="205" y="38"/>
      <point x="205" y="67" type="curve" smooth="yes"/>
      <point x="205" y="643" type="line" smooth="yes"/>
      <point x="205" y="672"/>
      <point x="247" y="679"/>
      <point x="304" y="679" type="curve" smooth="yes"/>
      <point x="316" y="679" type="line"/>
      <point x="316" y="710" type="line"/>
      <point x="52" y="710" type="line"/>
      <point x="52" y="679" type="line"/>
      <point x="65" y="679" type="line" smooth="yes"/>
      <point x="122" y="679"/>
      <point x="164" y="672"/>
      <point x="164" y="643" type="curve" smooth="yes"/>
    </contour>
  </outline>
</glyph>
<glyph name="L" format="2">
  <advance width="675"/>
  <unicode hex="004C"/>
  <anchor x="402" y="741" name="top"/>
  <anchor x="488" y="710" name="right"/>
  <anchor x="490" y="410" name="mid"/>
  <anchor x="402" y="0" name="bottom"/>
  <outline>
    <contour>
      <point x="321" y="710" type="line"/>
      <point x="321" y="679" type="line"/>
      <point x="308" y="679" type="line" smooth="yes"/>
      <point x="248" y="679"/>
      <point x="205" y="672"/>
      <point x="205" y="643" type="curve" smooth="yes"/>
      <point x="205" y="31" type="line"/>
      <point x="427" y="31" type="line" smooth="yes"/>
      <point x="527" y="31"/>
      <point x="568" y="38"/>
      <point x="572" y="74" type="curve" smooth="yes"/>
      <point x="583" y="196" type="line"/>
      <point x="609" y="196" type="line"/>
      <point x="609" y="0" type="line"/>
      <point x="52" y="0" type="line"/>
      <point x="52" y="31" type="line"/>
      <point x="65" y="31" type="line" smooth="yes"/>
      <point x="122" y="31"/>
      <point x="164" y="38"/>
      <point x="164" y="67" type="curve" smooth="yes"/>
      <point x="164" y="643" type="line" smooth="yes"/>
      <point x="164" y="672"/>
      <point x="122" y="679"/>
      <point x="65" y="679" type="curve" smooth="yes"/>
      <point x="52" y="679" type="line"/>
      <point x="52" y="710" type="line"/>
    </contour>
  </outline>
</glyph>
<glyph name="S" format="2">
  <advance width="721"/>
  <unicode hex="0053"/>
  <anchor x="391" y="741" name="top"/>
  <anchor x="391" y="0" name="bottom"/>
  <outline>
    <contour>
      <point x="404" y="21" type="curve" smooth="yes"/>
      <point x="255" y="21"/>
      <point x="155" y="92"/>
      <point x="124" y="221" type="curve"/>
      <point x="82" y="221" type="line"/>
      <point x="82" y="0" type="line"/>
      <point x="111" y="0" type="line"/>
      <point x="122" y="170" type="line"/>
      <point x="104" y="189" type="line"/>
      <point x="140" y="59"/>
      <point x="238" y="-10"/>
      <point x="404" y="-10" type="curve" smooth="yes"/>
      <point x="540" y="-10"/>
      <point x="646" y="55"/>
      <point x="646" y="181" type="curve" smooth="yes"/>
      <point x="646" y="314"/>
      <point x="513" y="355"/>
      <point x="383" y="386" type="curve" smooth="yes"/>
      <point x="263" y="415"/>
      <point x="160" y="444"/>
      <point x="160" y="554" type="curve" smooth="yes"/>
      <point x="160" y="640"/>
      <point x="231" y="689"/>
      <point x="346" y="689" type="curve" smooth="yes"/>
      <point x="465" y="689"/>
      <point x="536" y="632"/>
      <point x="567" y="524" type="curve"/>
      <point x="600" y="524" type="line"/>
      <point x="600" y="710" type="line"/>
      <point x="574" y="710" type="line"/>
      <point x="563" y="565" type="line"/>
      <point x="584" y="555" type="line"/>
      <point x="558" y="662"/>
      <point x="479" y="720"/>
      <point x="347" y="720" type="curve" smooth="yes"/>
      <point x="211" y="720"/>
      <point x="119" y="657"/>
      <point x="119" y="550" type="curve" smooth="yes"/>
      <point x="119" y="420"/>
      <point x="249" y="381"/>
      <point x="375" y="350" type="curve" smooth="yes"/>
      <point x="494" y="321"/>
      <point x="605" y="293"/>
      <point x="605" y="175" type="curve" smooth="yes"/>
      <point x="605" y="69"/>
      <point x="523" y="21"/>
    </contour>
  </outline>
</glyph>
<glyph name="U" format="2">
  <advance width="911"/>
  <unicode hex="0055"/>
  <anchor x="460" y="741" name="top"/>
  <anchor x="513" y="0" name="right"/>
  <anchor x="460" y="0" name="bottom"/>
  <outline>
    <contour>
      <point x="205" y="271" type="curve" smooth="yes"/>
      <point x="205" y="669" type="line" smooth="yes"/>
      <point x="205" y="676"/>
      <point x="262" y="679"/>
      <point x="306" y="679" type="curve" smooth="yes"/>
      <point x="317" y="679" type="line"/>
      <point x="317" y="710" type="line"/>
      <point x="52" y="710" type="line"/>
      <point x="52" y="679" type="line"/>
      <point x="66" y="679" type="line" smooth="yes"/>
      <point x="122" y="679"/>
      <point x="164" y="672"/>
      <point x="164" y="643" type="curve" smooth="yes"/>
      <point x="164" y="271" type="line" smooth="yes"/>
      <point x="164" y="68"/>
      <point x="287" y="-10"/>
      <point x="455" y="-10" type="curve" smooth="yes"/>
      <point x="618" y="-10"/>
      <point x="746" y="69"/>
      <point x="746" y="271" type="curve" smooth="yes"/>
      <point x="746" y="633" type="line" smooth="yes"/>
      <point x="746" y="667"/>
      <point x="788" y="679"/>
      <point x="845" y="679" type="curve" smooth="yes"/>
      <point x="858" y="679" type="line"/>
      <point x="858" y="710" type="line"/>
      <point x="600" y="710" type="line"/>
      <point x="600" y="679" type="line"/>
      <point x="610" y="679" type="line" smooth="yes"/>
      <point x="654" y="679"/>
      <point x="711" y="671"/>
      <point x="711" y="657" type="curve" smooth="yes"/>
      <point x="711" y="271" type="line" smooth="yes"/>
      <point x="711" y="89"/>
      <point x="601" y="25"/>
      <point x="459" y="25" type="curve" smooth="yes"/>
      <point x="318" y="25"/>
      <point x="205" y="87"/>
    </contour>
  </outline>
</glyph>
<glyph name="bracketleft" format="2">
  <advance width="312"/>
  <unicode hex="005B"/>
  <outline>
    <contour>
      <point x="71" y="-130" type="line"/>
      <point x="282" y="-130" type="line"/>
      <point x="282" y="-99" type="line"/>
      <point x="113" y="-99" type="line"/>
      <point x="113" y="719" type="line"/>
      <point x="282" y="719" type="line"/>
      <point x="282" y="750" type="line"/>
      <point x="71" y="750" type="line"/>
    </contour>
  </outline>
</glyph>
<glyph name="b" format="2">
  <advance width="684"/>
  <unicode hex="0062"/>
  <outline>
    <contour>
      <point x="380" y="-10" type="curve" smooth="yes"/>
      <point x="532" y="-10"/>
      <point x="632" y="99"/>
      <point x="632" y="257" type="curve" smooth="yes"/>
      <point x="632" y="414"/>
      <point x="537" y="518"/>
      <point x="389" y="518" type="curve" smooth="yes"/>
      <point x="283" y="518"/>
      <point x="216" y="471"/>
      <point x="156" y="391" type="curve"/>
      <point x="156" y="338" type="line"/>
      <point x="214" y="429"/>
      <point x="286" y="487"/>
      <point x="382" y="487" type="curve" smooth="yes"/>
      <point x="516" y="487"/>
      <point x="588" y="398"/>
      <point x="588" y="257" type="curve" smooth="yes"/>
      <point x="588" y="116"/>
      <point x="514" y="21"/>
      <point x="376" y="21" type="curve" smooth="yes"/>
      <point x="277" y="21"/>
      <point x="203" y="80"/>
      <point x="156" y="177" type="curve"/>
      <point x="156" y="116" type="line"/>
      <point x="210" y="34"/>
      <point x="278" y="-10"/>
    </contour>
    <contour>
      <point x="118" y="662" type="curve" smooth="yes"/>
      <point x="118" y="-3" type="line"/>
      <point x="143" y="-3" type="line"/>
      <point x="160" y="125" type="line"/>
      <point x="159" y="126" type="line"/>
      <point x="159" y="735" type="line"/>
      <point x="20" y="735" type="line"/>
      <point x="20" y="709" type="line"/>
      <point x="32" y="707" type="line" smooth="yes"/>
      <point x="90" y="697"/>
      <point x="118" y="691"/>
    </contour>
  </outline>
</glyph>
<glyph name="c" format="2">
  <advance width="609"/>
  <unicode hex="0063"/>
  <anchor x="323" y="508" name="top"/>
  <anchor x="332" y="0" name="bottom"/>
  <outline>
    <contour>
      <point x="325" y="19" type="curve" smooth="yes"/>
      <point x="188" y="19"/>
      <point x="95" y="106"/>
      <point x="95" y="253" type="curve" smooth="yes"/>
      <point x="95" y="391"/>
      <point x="181" y="487"/>
      <point x="339" y="487" type="curve" smooth="yes"/>
      <point x="428" y="487"/>
      <point x="482" y="458"/>
      <point x="505" y="425" type="curve"/>
      <point x="533" y="420"/>
      <point x="513" y="451"/>
      <point x="482" y="461" type="curve"/>
      <point x="482" y="379" type="line"/>
      <point x="533" y="379" type="line"/>
      <point x="533" y="457" type="line"/>
      <point x="520" y="475"/>
      <point x="456" y="518"/>
      <point x="339" y="518" type="curve" smooth="yes"/>
      <point x="157" y="518"/>
      <point x="51" y="406"/>
      <point x="51" y="253" type="curve" smooth="yes"/>
      <point x="51" y="91"/>
      <point x="170" y="-12"/>
      <point x="326" y="-12" type="curve" smooth="yes"/>
      <point x="452" y="-12"/>
      <point x="520" y="51"/>
      <point x="559" y="125" type="curve"/>
      <point x="528" y="141" type="line"/>
      <point x="504" y="93"/>
      <point x="448" y="19"/>
    </contour>
  </outline>
</glyph>
<glyph name="f" format="2">
  <advance width="428"/>
  <unicode hex="0066"/>
  <outline>
    <contour>
      <point x="40" y="508" type="line"/>
      <point x="40" y="480" type="line"/>
      <point x="392" y="480" type="line"/>
      <point x="392" y="508" type="line"/>
    </contour>
    <contour>
      <point x="412" y="742" type="line"/>
      <point x="394" y="748"/>
      <point x="363" y="752"/>
      <point x="328" y="752" type="curve" smooth="yes"/>
      <point x="230" y="752"/>
      <point x="162" y="709"/>
      <point x="162" y="595" type="curve" smooth="yes"/>
      <point x="162" y="64" type="line" smooth="yes"/>
      <point x="162" y="35"/>
      <point x="123" y="28"/>
      <point x="59" y="28" type="curve" smooth="yes"/>
      <point x="46" y="28" type="line"/>
      <point x="46" y="0" type="line"/>
      <point x="328" y="0" type="line"/>
      <point x="328" y="28" type="line"/>
      <point x="313" y="28" type="line" smooth="yes"/>
      <point x="250" y="28"/>
      <point x="203" y="31"/>
      <point x="203" y="38" type="curve" smooth="yes"/>
      <point x="203" y="595" type="line" smooth="yes"/>
      <point x="203" y="694"/>
      <point x="249" y="721"/>
      <point x="325" y="721" type="curve" smooth="yes"/>
      <point x="359" y="721"/>
      <point x="389" y="715"/>
      <point x="412" y="708" type="curve"/>
    </contour>
  </outline>
</glyph>
<glyph name="k" format="2">
  <advance width="674"/>
  <unicode hex="006B"/>
  <anchor x="341" y="0" name="bottom"/>
  <outline>
    <contour>
      <point x="641" y="0" type="line"/>
      <point x="641" y="31" type="line"/>
      <point x="639" y="31" type="line"/>
      <point x="600" y="31"/>
      <point x="566" y="37"/>
      <point x="530" y="69" type="curve" smooth="yes"/>
      <point x="269" y="292" type="line"/>
      <point x="270" y="273" type="line"/>
      <point x="479" y="429" type="line" smooth="yes"/>
      <point x="522" y="462"/>
      <point x="559" y="478"/>
      <point x="609" y="478" type="curve"/>
      <point x="612" y="478" type="line"/>
      <point x="612" y="508" type="line"/>
      <point x="362" y="508" type="line"/>
      <point x="362" y="478" type="line"/>
      <point x="367" y="478" type="line"/>
      <point x="406" y="478"/>
      <point x="465" y="475"/>
      <point x="465" y="460" type="curve"/>
      <point x="229" y="281" type="line"/>
      <point x="229" y="276" type="line"/>
      <point x="506" y="41" type="line"/>
      <point x="506" y="34"/>
      <point x="455" y="31"/>
      <point x="419" y="31" type="curve"/>
      <point x="411" y="31" type="line"/>
      <point x="411" y="0" type="line"/>
    </contour>
    <contour>
      <point x="180" y="735" type="line"/>
      <point x="40" y="735" type="line"/>
      <point x="40" y="704" type="line"/>
      <point x="53" y="702" type="line" smooth="yes"/>
      <point x="113" y="693"/>
      <point x="139" y="686"/>
      <point x="139" y="657" type="curve" smooth="yes"/>
      <point x="139" y="64" type="line" smooth="yes"/>
      <point x="139" y="35"/>
      <point x="100" y="28"/>
      <point x="44" y="28" type="curve"/>
      <point x="42" y="28" type="line"/>
      <point x="42" y="0" type="line"/>
      <point x="267" y="0" type="line"/>
      <point x="267" y="28" type="line"/>
      <point x="264" y="28" type="line" smooth="yes"/>
      <point x="232" y="28"/>
      <point x="180" y="31"/>
      <point x="180" y="38" type="curve" smooth="yes"/>
    </contour>
  </outline>
</glyph>
<glyph name="l" format="2">
  <advance width="321"/>
  <unicode hex="006C"/>
  <anchor x="167" y="746" name="top"/>
  <anchor x="262" y="735" name="right"/>
  <anchor x="311" y="391" name="mid"/>
  <anchor x="169" y="0" name="bottom"/>
  <outline>
    <contour>
      <point x="180" y="735" type="line"/>
      <point x="41" y="735" type="line"/>
      <point x="41" y="709" type="line"/>
      <point x="52" y="707" type="line" smooth="yes"/>
      <point x="110" y="697"/>
      <point x="139" y="691"/>
      <point x="139" y="662" type="curve" smooth="yes"/>
      <point x="139" y="64" type="line" smooth="yes"/>
      <point x="139" y="35"/>
      <point x="99" y="28"/>
      <point x="43" y="28" type="curve" smooth="yes"/>
      <point x="41" y="28" type="line"/>
      <point x="41" y="0" type="line"/>
      <point x="278" y="0" type="line"/>
      <point x="278" y="28" type="line"/>
      <point x="275" y="28" type="line" smooth="yes"/>
      <point x="219" y="28"/>
      <point x="180" y="35"/>
      <point x="180" y="64" type="curve" smooth="yes"/>
    </contour>
  </outline>
</glyph>
<glyph name="o" format="2">
  <advance width="646"/>
  <unicode hex="006F"/>
  <anchor x="323" y="508" name="top"/>
  <anchor x="417" y="0" name="right"/>
  <anchor x="323" y="0" name="bottom"/>
  <outline>
    <contour>
      <point x="323" y="-10" type="curve"/>
      <point x="481" y="-10"/>
      <point x="595" y="97"/>
      <point x="595" y="254" type="curve" smooth="yes"/>
      <point x="595" y="409"/>
      <point x="481" y="518"/>
      <point x="323" y="518" type="curve" smooth="yes"/>
      <point x="165" y="518"/>
      <point x="51" y="410"/>
      <point x="51" y="254" type="curve" smooth="yes"/>
      <point x="51" y="97"/>
      <point x="165" y="-10"/>
    </contour>
    <contour>
      <point x="323" y="21" type="curve"/>
      <point x="182" y="21"/>
      <point x="95" y="113"/>
      <point x="95" y="254" type="curve" smooth="yes"/>
      <point x="95" y="392"/>
      <point x="182" y="487"/>
      <point x="323" y="487" type="curve" smooth="yes"/>
      <point x="464" y="487"/>
      <point x="551" y="392"/>
      <point x="551" y="254" type="curve" smooth="yes"/>
      <point x="551" y="112"/>
      <point x="464" y="21"/>
    </contour>
  </outline>
</glyph>
<glyph name="u" format="2">
  <advance width="664"/>
  <unicode hex="0075"/>
  <anchor x="314" y="508" name="top"/>
  <anchor x="463" y="0" name="right"/>
  <anchor x="311" y="0" name="bottom"/>
  <outline>
    <contour>
      <point x="162" y="508" type="line"/>
      <point x="23" y="508" type="line"/>
      <point x="23" y="480" type="line"/>
      <point x="25" y="480" type="line" smooth="yes"/>
      <point x="80" y="480"/>
      <point x="121" y="473"/>
      <point x="121" y="444" type="curve" smooth="yes"/>
      <point x="121" y="151" type="line" smooth="yes"/>
      <point x="121" y="40"/>
      <point x="182" y="-10"/>
      <point x="290" y="-10" type="curve" smooth="yes"/>
      <point x="375" y="-10"/>
      <point x="441" y="26"/>
      <point x="503" y="99" type="curve"/>
      <point x="503" y="143" type="line"/>
      <point x="445" y="69"/>
      <point x="382" y="24"/>
      <point x="297" y="24" type="curve" smooth="yes"/>
      <point x="197" y="24"/>
      <point x="162" y="67"/>
      <point x="162" y="162" type="curve"/>
    </contour>
    <contour>
      <point x="541" y="508" type="line"/>
      <point x="393" y="508" type="line"/>
      <point x="393" y="480" type="line"/>
      <point x="393" y="480" type="line"/>
      <point x="459" y="480"/>
      <point x="500" y="473"/>
      <point x="500" y="444" type="curve" smooth="yes"/>
      <point x="500" y="117" type="line"/>
      <point x="499" y="117" type="line"/>
      <point x="499" y="0" type="line"/>
      <point x="641" y="0" type="line"/>
      <point x="641" y="28" type="line"/>
      <point x="638" y="28" type="line" smooth="yes"/>
      <point x="581" y="28"/>
      <point x="541" y="35"/>
      <point x="541" y="64" type="curve" smooth="yes"/>
    </contour>
  </outline>
</glyph>
<glyph name="v" format="2">
  <advance width="630"/>
  <unicode hex="0076"/>
  <outline>
    <contour>
      <point x="504" y="468" type="curve"/>
      <point x="314" y="26" type="line"/>
      <point x="326" y="24" type="line"/>
      <point x="130" y="469" type="line"/>
      <point x="130" y="476"/>
      <point x="182" y="478"/>
      <point x="232" y="478" type="curve" smooth="yes"/>
      <point x="235" y="478" type="line"/>
      <point x="235" y="508" type="line"/>
      <point x="12" y="508" type="line"/>
      <point x="12" y="478" type="line"/>
      <point x="15" y="478" type="line" smooth="yes"/>
      <point x="59" y="478"/>
      <point x="88" y="471"/>
      <point x="99" y="444" type="curve" smooth="yes"/>
      <point x="295" y="0" type="line"/>
      <point x="336" y="0" type="line"/>
      <point x="530" y="443" type="line" smooth="yes"/>
      <point x="542" y="470"/>
      <point x="570" y="478"/>
      <point x="615" y="478" type="curve" smooth="yes"/>
      <point x="617" y="478" type="line"/>
      <point x="617" y="508" type="line"/>
      <point x="399" y="508" type="line"/>
      <point x="399" y="478" type="line"/>
      <point x="401" y="478" type="line" smooth="yes"/>
      <point x="452" y="478"/>
      <point x="504" y="475"/>
    </contour>
  </outline>
</glyph>
<glyph name="x" format="2">
  <advance width="629"/>
  <unicode hex="0078"/>
  <outline>
    <contour>
      <point x="604" y="0" type="line"/>
      <point x="604" y="31" type="line"/>
      <point x="603" y="31" type="line"/>
      <point x="556" y="31"/>
      <point x="535" y="39"/>
      <point x="512" y="65" type="curve" smooth="yes"/>
      <point x="325" y="276" type="line"/>
      <point x="320" y="280" type="line"/>
      <point x="159" y="470" type="line"/>
      <point x="159" y="476"/>
      <point x="212" y="478"/>
      <point x="260" y="478" type="curve" smooth="yes"/>
      <point x="263" y="478" type="line"/>
      <point x="263" y="508" type="line"/>
      <point x="39" y="508" type="line"/>
      <point x="39" y="477" type="line"/>
      <point x="40" y="477" type="line"/>
      <point x="84" y="477"/>
      <point x="106" y="472"/>
      <point x="124" y="451" type="curve" smooth="yes"/>
      <point x="290" y="254" type="line"/>
      <point x="295" y="251" type="line"/>
      <point x="483" y="40" type="line"/>
      <point x="483" y="33"/>
      <point x="427" y="31"/>
      <point x="378" y="31" type="curve" smooth="yes"/>
      <point x="376" y="31" type="line"/>
      <point x="376" y="0" type="line"/>
    </contour>
    <contour>
      <point x="25" y="0" type="line"/>
      <point x="245" y="0" type="line"/>
      <point x="245" y="31" type="line"/>
      <point x="243" y="31" type="line" smooth="yes"/>
      <point x="197" y="31"/>
      <point x="147" y="39"/>
      <point x="147" y="51" type="curve"/>
      <point x="318" y="246" type="line"/>
      <point x="296" y="267" type="line"/>
      <point x="119" y="69" type="line" smooth="yes"/>
      <point x="94" y="41"/>
      <point x="60" y="31"/>
      <point x="26" y="31" type="curve"/>
      <point x="25" y="31" type="line"/>
    </contour>
    <contour>
      <point x="329" y="246" type="line"/>
      <point x="492" y="433" type="line" smooth="yes"/>
      <point x="523" y="467"/>
      <point x="553" y="478"/>
      <point x="593" y="478" type="curve"/>
      <point x="594" y="478" type="line"/>
      <point x="594" y="508" type="line"/>
      <point x="375" y="508" type="line"/>
      <point x="375" y="478" type="line"/>
      <point x="379" y="478" type="line" smooth="yes"/>
      <point x="422" y="478"/>
      <point x="473" y="470"/>
      <point x="473" y="458" type="curve"/>
      <point x="312" y="272" type="line"/>
    </contour>
  </outline>
</glyph>
<glyph name="asciitilde" format="2">
  <advance width="624"/>
  <unicode hex="007E"/>
  <outline>
    <contour>
      <point x="429" y="267" type="curve" smooth="yes"/>
      <point x="510" y="267"/>
      <point x="538" y="334"/>
      <point x="554" y="384" type="curve"/>
      <point x="524" y="393" type="line"/>
      <point x="515" y="365"/>
      <point x="495" y="301"/>
      <point x="428" y="301" type="curve" smooth="yes"/>
      <point x="338" y="301"/>
      <point x="307" y="394"/>
      <point x="200" y="394" type="curve" smooth="yes"/>
      <point x="119" y="394"/>
      <point x="81" y="336"/>
      <point x="70" y="280" type="curve"/>
      <point x="102" y="273" type="line"/>
      <point x="110" y="312"/>
      <point x="135" y="361"/>
      <point x="201" y="361" type="curve" smooth="yes"/>
      <point x="285" y="361"/>
      <point x="328" y="267"/>
    </contour>
  </outline>
</glyph>
<glyph name="currency" format="2">
  <advance width="652"/>
  <unicode hex="00A4"/>
  <outline>
    <contour>
      <point x="525" y="376" type="curve" smooth="yes"/>
      <point x="525" y="277"/>
      <point x="444" y="207"/>
      <point x="326" y="207" type="curve" smooth="yes"/>
      <point x="208" y="207"/>
      <point x="127" y="278"/>
      <point x="127" y="376" type="curve" smooth="yes"/>
      <point x="127" y="475"/>
      <point x="208" y="546"/>
      <point x="326" y="546" type="curve" smooth="yes"/>
      <point x="444" y="546"/>
      <point x="525" y="475"/>
    </contour>
    <contour>
      <point x="85" y="376" type="curve" smooth="yes"/>
      <point x="85" y="257"/>
      <point x="192" y="171"/>
      <point x="326" y="171" type="curve" smooth="yes"/>
      <point x="460" y="171"/>
      <point x="567" y="257"/>
      <point x="567" y="376" type="curve" smooth="yes"/>
      <point x="567" y="496"/>
      <point x="460" y="582"/>
      <point x="326" y="582" type="curve" smooth="yes"/>
      <point x="192" y="582"/>
      <point x="85" y="496"/>
    </contour>
    <contour>
      <point x="37" y="599" type="line"/>
      <point x="157" y="496" type="line"/>
      <point x="194" y="517" type="line"/>
      <point x="66" y="627" type="line"/>
    </contour>
    <contour>
      <point x="615" y="599" type="line"/>
      <point x="587" y="627" type="line"/>
      <point x="459" y="517" type="line"/>
      <point x="495" y="496" type="line"/>
    </contour>
    <contour>
      <point x="37" y="152" type="line"/>
      <point x="66" y="125" type="line"/>
      <point x="194" y="235" type="line"/>
      <point x="157" y="255" type="line"/>
    </contour>
    <contour>
      <point x="615" y="152" type="line"/>
      <point x="495" y="255" type="line"/>
      <point x="459" y="235" type="line"/>
      <point x="587" y="125" type="line"/>
    </contour>
  </outline>
</glyph>
<glyph name="section" format="2">
  <advance width="709"/>
  <unicode hex="00A7"/>
  <outline>
    <contour>
      <point x="325" y="424" type="line"/>
      <point x="195" y="427"/>
      <point x="70" y="378"/>
      <point x="70" y="282" type="curve" smooth="yes"/>
      <point x="70" y="181"/>
      <point x="183" y="140"/>
      <point x="294" y="98" type="curve" smooth="yes"/>
      <point x="421" y="52"/>
      <point x="534" y="27"/>
      <point x="534" y="-76" type="curve" smooth="yes"/>
      <point x="534" y="-161"/>
      <point x="453" y="-205"/>
      <point x="342" y="-205" type="curve" smooth="yes"/>
      <point x="235" y="-205"/>
      <point x="160" y="-174"/>
      <point x="110" y="-130" type="curve"/>
      <point x="117" y="-139"/>
      <point x="117" y="-161"/>
      <point x="154" y="-194" type="curve"/>
      <point x="154" y="-65" type="line"/>
      <point x="103" y="-65" type="line"/>
      <point x="103" y="-172" type="line"/>
      <point x="139" y="-201"/>
      <point x="230" y="-236"/>
      <point x="342" y="-236" type="curve" smooth="yes"/>
      <point x="468" y="-236"/>
      <point x="575" y="-176"/>
      <point x="575" y="-72" type="curve" smooth="yes"/>
      <point x="575" y="38"/>
      <point x="461" y="80"/>
      <point x="327" y="128" type="curve" smooth="yes"/>
      <point x="215" y="168"/>
      <point x="108" y="199"/>
      <point x="108" y="284" type="curve" smooth="yes"/>
      <point x="108" y="360"/>
      <point x="203" y="400"/>
      <point x="341" y="400" type="curve"/>
    </contour>
    <contour>
      <point x="438" y="63" type="line"/>
      <point x="553" y="75"/>
      <point x="641" y="129"/>
      <point x="641" y="214" type="curve" smooth="yes"/>
      <point x="641" y="316"/>
      <point x="524" y="360"/>
      <point x="387" y="409" type="curve" smooth="yes"/>
      <point x="283" y="447"/>
      <point x="175" y="479"/>
      <point x="175" y="571" type="curve" smooth="yes"/>
      <point x="175" y="643"/>
      <point x="242" y="689"/>
      <point x="356" y="689" type="curve" smooth="yes"/>
      <point x="458" y="689"/>
      <point x="510" y="653"/>
      <point x="546" y="613" type="curve"/>
      <point x="549" y="635"/>
      <point x="533" y="664"/>
      <point x="508" y="669" type="curve"/>
      <point x="508" y="567" type="line"/>
      <point x="559" y="567" type="line"/>
      <point x="559" y="657" type="line"/>
      <point x="528" y="686"/>
      <point x="456" y="720"/>
      <point x="356" y="720" type="curve" smooth="yes"/>
      <point x="232" y="720"/>
      <point x="133" y="664"/>
      <point x="133" y="573" type="curve" smooth="yes"/>
      <point x="133" y="467"/>
      <point x="244" y="421"/>
      <point x="365" y="378" type="curve" smooth="yes"/>
      <point x="490" y="335"/>
      <point x="603" y="293"/>
      <point x="603" y="212" type="curve" smooth="yes"/>
      <point x="603" y="146"/>
      <point x="546" y="103"/>
      <point x="424" y="89" type="curve"/>
    </contour>
  </outline>
</glyph>
<glyph name="dieresis" format="2">
  <advance width="583"/>
  <unicode hex="00A8"/>
  <anchor x="292" y="526" name="_top"/>
  <outline>
    <contour>
      <point x="182" y="655" type="curve" smooth="yes"/>
      <point x="207" y="655"/>
      <point x="226" y="670"/>
      <point x="226" y="696" type="curve" smooth="yes"/>
      <point x="226" y="722"/>
      <point x="207" y="737"/>
      <point x="182" y="737" type="curve" smooth="yes"/>
      <point x="157" y="737"/>
      <point x="138" y="722"/>
      <point x="138" y="696" type="curve" smooth="yes"/>
      <point x="138" y="670"/>
      <point x="157" y="655"/>
    </contour>
    <contour>
      <point x="404" y="655" type="curve" smooth="yes"/>
      <point x="429" y="655"/>
      <point x="448" y="670"/>
      <point x="448" y="696" type="curve" smooth="yes"/>
      <point x="448" y="722"/>
      <point x="429" y="737"/>
      <point x="404" y="737" type="curve" smooth="yes"/>
      <point x="378" y="737"/>
      <point x="360" y="722"/>
      <point x="360" y="696" type="curve" smooth="yes"/>
      <point x="360" y="670"/>
      <point x="378" y="655"/>
    </contour>
  </outline>
</glyph>
<glyph name="germandbls" format="2">
  <advance width="648"/>
  <unicode hex="00DF"/>
  <outline>
    <contour>
      <point x="40" y="508" type="line"/>
      <point x="40" y="477" type="line"/>
      <point x="202" y="477" type="line"/>
      <point x="202" y="508" type="line"/>
    </contour>
    <contour>
      <point x="307" y="420" type="line"/>
      <point x="420" y="430"/>
      <point x="527" y="508"/>
      <point x="527" y="609" type="curve" smooth="yes"/>
      <point x="527" y="692"/>
      <point x="457" y="752"/>
      <point x="350" y="752" type="curve" smooth="yes"/>
      <point x="246" y="752"/>
      <point x="162" y="704"/>
      <point x="162" y="587" type="curve" smooth="yes"/>
      <point x="162" y="64" type="line" smooth="yes"/>
      <point x="162" y="35"/>
      <point x="123" y="28"/>
      <point x="59" y="28" type="curve" smooth="yes"/>
      <point x="46" y="28" type="line"/>
      <point x="46" y="0" type="line"/>
      <point x="203" y="0" type="line"/>
      <point x="203" y="587" type="line" smooth="yes"/>
      <point x="203" y="688"/>
      <point x="261" y="721"/>
      <point x="350" y="721" type="curve" smooth="yes"/>
      <point x="441" y="721"/>
      <point x="489" y="676"/>
      <point x="489" y="606" type="curve" smooth="yes"/>
      <point x="489" y="504"/>
      <point x="385" y="447"/>
      <point x="282" y="436" type="curve"/>
      <point x="282" y="406" type="line"/>
      <point x="285" y="406" type="line" smooth="yes"/>
      <point x="440" y="406"/>
      <point x="557" y="320"/>
      <point x="557" y="189" type="curve" smooth="yes"/>
      <point x="557" y="79"/>
      <point x="496" y="21"/>
      <point x="391" y="21" type="curve" smooth="yes"/>
      <point x="328" y="21"/>
      <point x="278" y="45"/>
      <point x="275" y="44" type="curve"/>
      <point x="275" y="10" type="line"/>
      <point x="295" y="1"/>
      <point x="342" y="-10"/>
      <point x="391" y="-10" type="curve" smooth="yes"/>
      <point x="518" y="-10"/>
      <point x="601" y="63"/>
      <point x="601" y="189" type="curve" smooth="yes"/>
      <point x="601" y="326"/>
      <point x="479" y="413"/>
      <point x="321" y="427" type="curve"/>
      <point x="332" y="418" type="line"/>
      <point x="332" y="434" type="line"/>
    </contour>
  </outline>
</glyph>
<glyph name="eth" format="2">
  <advance width="630"/>
  <unicode hex="00F0"/>
  <outline>
    <contour>
      <point x="535" y="400" type="line"/>
      <point x="503" y="472"/>
      <point x="415" y="518"/>
      <point x="323" y="518" type="curve" smooth="yes"/>
      <point x="161" y="518"/>
      <point x="51" y="413"/>
      <point x="51" y="256" type="curve" smooth="yes"/>
      <point x="51" y="99"/>
      <point x="163" y="-10"/>
      <point x="319" y="-10" type="curve" smooth="yes"/>
      <point x="479" y="-10"/>
      <point x="579" y="104"/>
      <point x="579" y="292" type="curve" smooth="yes"/>
      <point x="579" y="484"/>
      <point x="474" y="668"/>
      <point x="183" y="758" type="curve"/>
      <point x="169" y="735" type="line"/>
      <point x="436" y="646"/>
      <point x="535" y="494"/>
      <point x="535" y="292" type="curve" smooth="yes"/>
      <point x="535" y="120"/>
      <point x="462" y="21"/>
      <point x="319" y="21" type="curve" smooth="yes"/>
      <point x="181" y="21"/>
      <point x="95" y="116"/>
      <point x="95" y="256" type="curve" smooth="yes"/>
      <point x="95" y="395"/>
      <point x="188" y="487"/>
      <point x="322" y="487" type="curve" smooth="yes"/>
      <point x="421" y="487"/>
      <point x="487" y="441"/>
      <point x="551" y="354" type="curve"/>
    </contour>
    <contour>
      <point x="113" y="585" type="line"/>
      <point x="125" y="559" type="line"/>
      <point x="509" y="722" type="line"/>
      <point x="496" y="748" type="line"/>
    </contour>
  </outline>
</glyph>
<glyph name="Aogonek" format="2">
  <advance width="788"/>
  <unicode hex="0104"/>
  <outline>
    <contour>
      <point x="212" y="298" type="line"/>
      <point x="205" y="267" type="line"/>
      <point x="576" y="267" type="line"/>
      <point x="575" y="298" type="line"/>
    </contour>
    <contour>
      <point x="677" y="29" type="line"/>
      <point x="586" y="-18"/>
      <point x="520" y="-69"/>
      <point x="520" y="-140" type="curve" smooth="yes"/>
      <point x="520" y="-198"/>
      <point x="570" y="-233"/>
      <point x="629" y="-233" type="curve" smooth="yes"/>
      <point x="678" y="-233"/>
      <point x="717" y="-211"/>
      <point x="749" y="-180" type="curve"/>
      <point x="728" y="-160" type="line"/>
      <point x="701" y="-183"/>
      <point x="675" y="-202"/>
      <point x="634" y="-202" type="curve" smooth="yes"/>
      <point x="595" y="-202"/>
      <point x="560" y="-181"/>
      <point x="560" y="-140" type="curve" smooth="yes"/>
      <point x="560" y="-83"/>
      <point x="596" y="-46"/>
      <point x="683" y="1" type="curve"/>
    </contour>
    <contour>
      <point x="775" y="0" type="line"/>
      <point x="775" y="31" type="line"/>
      <point x="770" y="31" type="line"/>
      <point x="730" y="31"/>
      <point x="704" y="33"/>
      <point x="694" y="59" type="curve" smooth="yes"/>
      <point x="423" y="710" type="line"/>
      <point x="362" y="710" type="line"/>
      <point x="99" y="74" type="line" smooth="yes"/>
      <point x="84" y="37"/>
      <point x="61" y="31"/>
      <point x="17" y="31" type="curve"/>
      <point x="12" y="31" type="line"/>
      <point x="12" y="0" type="line"/>
      <point x="246" y="0" type="line"/>
      <point x="246" y="31" type="line"/>
      <point x="228" y="31" type="line" smooth="yes"/>
      <point x="184" y="31"/>
      <point x="130" y="38"/>
      <point x="130" y="49" type="curve"/>
      <point x="396" y="694" type="line"/>
      <point x="383" y="703" type="line"/>
      <point x="672" y="0" type="line"/>
    </contour>
  </outline>
</glyph>
<glyph name="aogonek" format="2">
  <advance width="611"/>
  <unicode hex="0105"/>
  <outline>
    <contour>
      <point x="333" y="-140" type="curve" smooth="yes"/>
      <point x="333" y="-198"/>
      <point x="382" y="-233"/>
      <point x="442" y="-233" type="curve" smooth="yes"/>
      <point x="491" y="-233"/>
      <point x="530" y="-211"/>
      <point x="562" y="-180" type="curve"/>
      <point x="540" y="-160" type="line"/>
      <point x="514" y="-183"/>
      <point x="488" y="-202"/>
      <point x="447" y="-202" type="curve" smooth="yes"/>
      <point x="407" y="-202"/>
      <point x="374" y="-181"/>
      <point x="374" y="-140" type="curve" smooth="yes"/>
      <point x="374" y="-83"/>
      <point x="416" y="-50"/>
      <point x="495" y="1" type="curve"/>
      <point x="476" y="21" type="line"/>
      <point x="408" y="-22"/>
      <point x="333" y="-69"/>
    </contour>
    <contour>
      <point x="579" y="0" type="line"/>
      <point x="579" y="28" type="line"/>
      <point x="578" y="28" type="line"/>
      <point x="522" y="28"/>
      <point x="481" y="35"/>
      <point x="481" y="64" type="curve" smooth="yes"/>
      <point x="481" y="370" type="line" smooth="yes"/>
      <point x="481" y="484"/>
      <point x="390" y="518"/>
      <point x="290" y="518" type="curve" smooth="yes"/>
      <point x="194" y="518"/>
      <point x="133" y="486"/>
      <point x="101" y="461" type="curve"/>
      <point x="101" y="383" type="line"/>
      <point x="151" y="383" type="line"/>
      <point x="151" y="467" type="line"/>
      <point x="124" y="466"/>
      <point x="117" y="439"/>
      <point x="119" y="423" type="curve"/>
      <point x="150" y="459"/>
      <point x="203" y="487"/>
      <point x="290" y="487" type="curve" smooth="yes"/>
      <point x="385" y="487"/>
      <point x="440" y="459"/>
      <point x="440" y="361" type="curve" smooth="yes"/>
      <point x="440" y="110" type="line"/>
      <point x="439" y="110" type="line"/>
      <point x="439" y="0" type="line"/>
    </contour>
    <contour>
      <point x="67" y="123" type="curve" smooth="yes"/>
      <point x="67" y="43"/>
      <point x="137" y="-10"/>
      <point x="241" y="-10" type="curve" smooth="yes"/>
      <point x="330" y="-10"/>
      <point x="400" y="33"/>
      <point x="442" y="98" type="curve"/>
      <point x="442" y="152" type="line"/>
      <point x="413" y="84"/>
      <point x="340" y="21"/>
      <point x="242" y="21" type="curve" smooth="yes"/>
      <point x="153" y="21"/>
      <point x="111" y="62"/>
      <point x="111" y="123" type="curve" smooth="yes"/>
      <point x="111" y="216"/>
      <point x="211" y="250"/>
      <point x="442" y="273" type="curve"/>
      <point x="442" y="304" type="line"/>
      <point x="192" y="278"/>
      <point x="67" y="235"/>
    </contour>
  </outline>
</glyph>
<glyph name="eogonek" format="2">
  <advance width="592"/>
  <unicode hex="0119"/>
  <outline>
    <contour>
      <point x="356" y="-233" type="curve" smooth="yes"/>
      <point x="405" y="-233"/>
      <point x="444" y="-211"/>
      <point x="476" y="-180" type="curve"/>
      <point x="455" y="-160" type="line"/>
      <point x="428" y="-183"/>
      <point x="402" y="-202"/>
      <point x="361" y="-202" type="curve" smooth="yes"/>
      <point x="321" y="-202"/>
      <point x="288" y="-181"/>
      <point x="288" y="-140" type="curve" smooth="yes"/>
      <point x="288" y="-70"/>
      <point x="389" y="-25"/>
      <point x="468" y="27" type="curve" smooth="yes"/>
      <point x="502" y="49"/>
      <point x="522" y="73"/>
      <point x="539" y="100" type="curve"/>
      <point x="514" y="124" type="line"/>
      <point x="480" y="70"/>
      <point x="422" y="19"/>
      <point x="318" y="19" type="curve" smooth="yes"/>
      <point x="192" y="19"/>
      <point x="94" y="103"/>
      <point x="94" y="249" type="curve" smooth="yes"/>
      <point x="94" y="396"/>
      <point x="184" y="487"/>
      <point x="308" y="487" type="curve" smooth="yes"/>
      <point x="433" y="487"/>
      <point x="491" y="413"/>
      <point x="498" y="265" type="curve"/>
      <point x="515" y="281" type="line"/>
      <point x="73" y="281" type="line"/>
      <point x="74" y="250" type="line"/>
      <point x="540" y="250" type="line"/>
      <point x="539" y="423"/>
      <point x="461" y="518"/>
      <point x="308" y="518" type="curve" smooth="yes"/>
      <point x="161" y="518"/>
      <point x="51" y="409"/>
      <point x="51" y="251" type="curve" smooth="yes"/>
      <point x="51" y="90"/>
      <point x="169" y="-12"/>
      <point x="318" y="-12" type="curve" smooth="yes"/>
      <point x="350" y="-12"/>
      <point x="379" y="-8"/>
      <point x="404" y="-1" type="curve"/>
      <point x="416" y="19" type="line"/>
      <point x="335" y="-25"/>
      <point x="247" y="-69"/>
      <point x="247" y="-140" type="curve" smooth="yes"/>
      <point x="247" y="-198"/>
      <point x="296" y="-233"/>
    </contour>
  </outline>
</glyph>
<glyph name="Ldot" format="2">
  <advance width="675"/>
  <unicode hex="013F"/>
  <outline>
    <contour>
      <point x="321" y="710" type="line"/>
      <point x="321" y="679" type="line"/>
      <point x="308" y="679" type="line" smooth="yes"/>
      <point x="248" y="679"/>
      <point x="205" y="672"/>
      <point x="205" y="643" type="curve" smooth="yes"/>
      <point x="205" y="31" type="line"/>
      <point x="427" y="31" type="line" smooth="yes"/>
      <point x="527" y="31"/>
      <point x="568" y="38"/>
      <point x="572" y="74" type="curve" smooth="yes"/>
      <point x="583" y="196" type="line"/>
      <point x="609" y="196" type="line"/>
      <point x="609" y="0" type="line"/>
      <point x="52" y="0" type="line"/>
      <point x="52" y="31" type="line"/>
      <point x="65" y="31" type="line" smooth="yes"/>
      <point x="122" y="31"/>
      <point x="164" y="38"/>
      <point x="164" y="67" type="curve" smooth="yes"/>
      <point x="164" y="643" type="line" smooth="yes"/>
      <point x="164" y="672"/>
      <point x="122" y="679"/>
      <point x="65" y="679" type="curve" smooth="yes"/>
      <point x="52" y="679" type="line"/>
      <point x="52" y="710" type="line"/>
    </contour>
    <component base="periodcentered" xOffset="436" yOffset="57"/>
  </outline>
</glyph>
<glyph name="OE" format="2">
  <advance width="1144"/>
  <unicode hex="0152"/>
  <outline>
    <contour>
      <point x="492" y="31" type="line" smooth="yes"/>
      <point x="237" y="31"/>
      <point x="98" y="148"/>
      <point x="98" y="353" type="curve" smooth="yes"/>
      <point x="98" y="558"/>
      <point x="237" y="679"/>
      <point x="492" y="679" type="curve" smooth="yes"/>
      <point x="624" y="679" type="line"/>
      <point x="624" y="31" type="line"/>
    </contour>
    <contour>
      <point x="643" y="378" type="curve"/>
      <point x="643" y="350" type="line"/>
      <point x="747" y="348"/>
      <point x="851" y="346"/>
      <point x="955" y="345" type="curve"/>
      <point x="955" y="383" type="line"/>
      <point x="851" y="381"/>
      <point x="747" y="379"/>
    </contour>
    <contour>
      <point x="1080" y="0" type="line"/>
      <point x="1080" y="189" type="line"/>
      <point x="1052" y="189" type="line"/>
      <point x="1041" y="74" type="line" smooth="yes"/>
      <point x="1038" y="38"/>
      <point x="996" y="31"/>
      <point x="896" y="31" type="curve" smooth="yes"/>
      <point x="665" y="31" type="line"/>
      <point x="665" y="679" type="line"/>
      <point x="862" y="679" type="line" smooth="yes"/>
      <point x="962" y="679"/>
      <point x="1003" y="672"/>
      <point x="1007" y="636" type="curve" smooth="yes"/>
      <point x="1018" y="546" type="line"/>
      <point x="1045" y="546" type="line"/>
      <point x="1045" y="710" type="line"/>
      <point x="492" y="710" type="line" smooth="yes"/>
      <point x="212" y="710"/>
      <point x="55" y="569"/>
      <point x="55" y="353" type="curve" smooth="yes"/>
      <point x="55" y="136"/>
      <point x="212" y="0"/>
      <point x="492" y="0" type="curve" smooth="yes"/>
    </contour>
  </outline>
</glyph>
<glyph name="oe" format="2">
  <advance width="1084"/>
  <unicode hex="0153"/>
  <outline>
    <contour>
      <point x="321" y="-10" type="curve"/>
      <point x="471" y="-10"/>
      <point x="580" y="93"/>
      <point x="580" y="254" type="curve" smooth="yes"/>
      <point x="580" y="414"/>
      <point x="471" y="518"/>
      <point x="321" y="518" type="curve" smooth="yes"/>
      <point x="164" y="518"/>
      <point x="51" y="410"/>
      <point x="51" y="254" type="curve" smooth="yes"/>
      <point x="51" y="97"/>
      <point x="164" y="-10"/>
    </contour>
    <contour>
      <point x="321" y="21" type="curve"/>
      <point x="181" y="21"/>
      <point x="95" y="113"/>
      <point x="95" y="254" type="curve" smooth="yes"/>
      <point x="95" y="393"/>
      <point x="181" y="487"/>
      <point x="321" y="487" type="curve" smooth="yes"/>
      <point x="461" y="487"/>
      <point x="547" y="393"/>
      <point x="547" y="254" type="curve" smooth="yes"/>
      <point x="547" y="112"/>
      <point x="461" y="21"/>
    </contour>
    <contour>
      <point x="813" y="-10" type="curve" smooth="yes"/>
      <point x="925" y="-10"/>
      <point x="989" y="43"/>
      <point x="1027" y="107" type="curve"/>
      <point x="997" y="124" type="line"/>
      <point x="974" y="85"/>
      <point x="921" y="21"/>
      <point x="812" y="21" type="curve" smooth="yes"/>
      <point x="688" y="21"/>
      <point x="591" y="105"/>
      <point x="591" y="250" type="curve" smooth="yes"/>
      <point x="591" y="396"/>
      <point x="680" y="487"/>
      <point x="801" y="487" type="curve" smooth="yes"/>
      <point x="926" y="487"/>
      <point x="983" y="414"/>
      <point x="989" y="265" type="curve"/>
      <point x="1006" y="274" type="line"/>
      <point x="558" y="274" type="line"/>
      <point x="559" y="244" type="line"/>
      <point x="1032" y="244" type="line"/>
      <point x="1031" y="423"/>
      <point x="954" y="518"/>
      <point x="801" y="518" type="curve" smooth="yes"/>
      <point x="663" y="518"/>
      <point x="560" y="414"/>
      <point x="560" y="252" type="curve" smooth="yes"/>
      <point x="560" y="88"/>
      <point x="672" y="-10"/>
    </contour>
  </outline>
</glyph>
<glyph name="Schwa" format="2">
  <advance width="787"/>
  <unicode hex="018F"/>
  <outline>
    <contour>
      <point x="382" y="720" type="curve" smooth="yes"/>
      <point x="233" y="720"/>
      <point x="125" y="656"/>
      <point x="57" y="563" type="curve"/>
      <point x="82" y="538" type="line"/>
      <point x="137" y="616"/>
      <point x="232" y="689"/>
      <point x="382" y="689" type="curve" smooth="yes"/>
      <point x="568" y="689"/>
      <point x="692" y="569"/>
      <point x="692" y="360" type="curve" smooth="yes"/>
      <point x="692" y="149"/>
      <point x="573" y="20"/>
      <point x="391" y="20" type="curve" smooth="yes"/>
      <point x="206" y="20"/>
      <point x="103" y="127"/>
      <point x="98" y="348" type="curve"/>
      <point x="73" y="336" type="line"/>
      <point x="714" y="336" type="line"/>
      <point x="713" y="367" type="line"/>
      <point x="55" y="367" type="line"/>
      <point x="57" y="120"/>
      <point x="177" y="-11"/>
      <point x="391" y="-11" type="curve" smooth="yes"/>
      <point x="594" y="-11"/>
      <point x="732" y="140"/>
      <point x="732" y="357" type="curve" smooth="yes"/>
      <point x="732" y="579"/>
      <point x="589" y="720"/>
    </contour>
  </outline>
</glyph>
<glyph name="Oogonek" format="2">
  <advance width="865"/>
  <unicode hex="01EA"/>
  <outline>
    <contour>
      <point x="432" y="21" type="curve" smooth="yes"/>
      <point x="236" y="21"/>
      <point x="98" y="151"/>
      <point x="98" y="355" type="curve" smooth="yes"/>
      <point x="98" y="559"/>
      <point x="236" y="689"/>
      <point x="432" y="689" type="curve" smooth="yes"/>
      <point x="628" y="689"/>
      <point x="767" y="559"/>
      <point x="767" y="355" type="curve" smooth="yes"/>
      <point x="767" y="151"/>
      <point x="628" y="21"/>
    </contour>
    <contour>
      <point x="512" y="-233" type="curve" smooth="yes"/>
      <point x="561" y="-233"/>
      <point x="599" y="-211"/>
      <point x="632" y="-180" type="curve"/>
      <point x="611" y="-160" type="line"/>
      <point x="584" y="-183"/>
      <point x="558" y="-202"/>
      <point x="516" y="-202" type="curve" smooth="yes"/>
      <point x="477" y="-202"/>
      <point x="443" y="-181"/>
      <point x="443" y="-140" type="curve" smooth="yes"/>
      <point x="443" y="-67"/>
      <point x="504" y="-29"/>
      <point x="629" y="42" type="curve" smooth="yes"/>
      <point x="741" y="106"/>
      <point x="810" y="216"/>
      <point x="810" y="355" type="curve" smooth="yes"/>
      <point x="810" y="572"/>
      <point x="647" y="720"/>
      <point x="432" y="720" type="curve" smooth="yes"/>
      <point x="217" y="720"/>
      <point x="55" y="572"/>
      <point x="55" y="355" type="curve" smooth="yes"/>
      <point x="55" y="139"/>
      <point x="217" y="-10"/>
      <point x="432" y="-10" type="curve" smooth="yes"/>
      <point x="472" y="-10"/>
      <point x="511" y="-5"/>
      <point x="547" y="5" type="curve"/>
      <point x="557" y="21" type="line"/>
      <point x="477" y="-22"/>
      <point x="402" y="-69"/>
      <point x="402" y="-140" type="curve" smooth="yes"/>
      <point x="402" y="-198"/>
      <point x="452" y="-233"/>
    </contour>
  </outline>
</glyph>
<glyph name="ring" format="2">
  <advance width="583"/>
  <unicode hex="02DA"/>
  <anchor x="291" y="526" name="_top"/>
  <outline>
    <contour>
      <point x="291" y="612" type="curve" smooth="yes"/>
      <point x="250" y="612"/>
      <point x="217" y="634"/>
      <point x="217" y="677" type="curve" smooth="yes"/>
      <point x="217" y="720"/>
      <point x="250" y="742"/>
      <point x="291" y="742" type="curve" smooth="yes"/>
      <point x="332" y="742"/>
      <point x="365" y="720"/>
      <point x="365" y="677" type="curve" smooth="yes"/>
      <point x="365" y="634"/>
      <point x="332" y="612"/>
    </contour>
    <contour>
      <point x="291" y="768" type="curve" smooth="yes"/>
      <point x="227" y="768"/>
      <point x="175" y="735"/>
      <point x="175" y="677" type="curve" smooth="yes"/>
      <point x="175" y="619"/>
      <point x="228" y="586"/>
      <point x="291" y="586" type="curve" smooth="yes"/>
      <point x="354" y="586"/>
      <point x="407" y="619"/>
      <point x="407" y="677" type="curve" smooth="yes"/>
      <point x="407" y="735"/>
      <point x="356" y="768"/>
    </contour>
  </outline>
</glyph>
<glyph name="ogonek" format="2">
  <advance width="699"/>
  <unicode hex="02DB"/>
  <anchor x="416" y="9" name="_right"/>
  <outline>
    <contour>
      <point x="448" y="21" type="line"/>
      <point x="381" y="-22"/>
      <point x="305" y="-69"/>
      <point x="305" y="-140" type="curve" smooth="yes"/>
      <point x="305" y="-198"/>
      <point x="355" y="-233"/>
      <point x="415" y="-233" type="curve" smooth="yes"/>
      <point x="463" y="-233"/>
      <point x="502" y="-211"/>
      <point x="534" y="-180" type="curve"/>
      <point x="514" y="-160" type="line"/>
      <point x="487" y="-183"/>
      <point x="461" y="-202"/>
      <point x="419" y="-202" type="curve" smooth="yes"/>
      <point x="380" y="-202"/>
      <point x="346" y="-181"/>
      <point x="346" y="-140" type="curve" smooth="yes"/>
      <point x="346" y="-83"/>
      <point x="389" y="-50"/>
      <point x="468" y="1" type="curve"/>
    </contour>
  </outline>
</glyph>
<glyph name="tilde" format="2">
  <advance width="583"/>
  <unicode hex="02DC"/>
  <anchor x="291" y="516" name="_top"/>
  <outline>
    <contour>
      <point x="367" y="616" type="curve" smooth="yes"/>
      <point x="424" y="616"/>
      <point x="448" y="651"/>
      <point x="469" y="715" type="curve"/>
      <point x="439" y="724" type="line"/>
      <point x="423" y="678"/>
      <point x="407" y="651"/>
      <point x="376" y="651" type="curve" smooth="yes"/>
      <point x="323" y="651"/>
      <point x="295" y="727"/>
      <point x="210" y="727" type="curve" smooth="yes"/>
      <point x="155" y="727"/>
      <point x="126" y="693"/>
      <point x="113" y="626" type="curve"/>
      <point x="143" y="616" type="line"/>
      <point x="155" y="665"/>
      <point x="167" y="692"/>
      <point x="203" y="692" type="curve" smooth="yes"/>
      <point x="253" y="692"/>
      <point x="278" y="616"/>
    </contour>
  </outline>
</glyph>
<glyph name="mu" format="2">
  <advance width="643"/>
  <unicode hex="03BC"/>
  <outline>
    <contour>
      <point x="551" y="-10" type="curve" smooth="yes"/>
      <point x="609" y="-10"/>
      <point x="639" y="26"/>
      <point x="656" y="64" type="curve"/>
      <point x="633" y="81" type="line"/>
      <point x="617" y="51"/>
      <point x="594" y="21"/>
      <point x="554" y="21" type="curve" smooth="yes"/>
      <point x="526" y="21"/>
      <point x="505" y="32"/>
      <point x="505" y="68" type="curve" smooth="yes"/>
      <point x="505" y="508" type="line"/>
      <point x="464" y="508" type="line"/>
      <point x="464" y="108" type="line"/>
      <point x="463" y="71" type="line" smooth="yes"/>
      <point x="464" y="19"/>
      <point x="492" y="-10"/>
    </contour>
    <contour>
      <point x="99" y="103" type="line"/>
      <point x="117" y="18"/>
      <point x="176" y="-10"/>
      <point x="253" y="-10" type="curve" smooth="yes"/>
      <point x="357" y="-10"/>
      <point x="427" y="40"/>
      <point x="500" y="143" type="curve"/>
      <point x="490" y="174" type="line"/>
      <point x="427" y="81"/>
      <point x="357" y="24"/>
      <point x="260" y="24" type="curve" smooth="yes"/>
      <point x="161" y="24"/>
      <point x="126" y="67"/>
      <point x="126" y="163" type="curve" smooth="yes"/>
      <point x="126" y="508" type="line"/>
      <point x="85" y="508" type="line"/>
      <point x="85" y="-250" type="line"/>
      <point x="131" y="-250" type="line"/>
      <point x="131" y="-116"/>
      <point x="114" y="-36"/>
      <point x="105" y="146" type="curve"/>
    </contour>
  </outline>
</glyph>
<glyph name="Germandbls" format="2">
  <advance width="897"/>
  <unicode hex="1E9E"/>
  <outline>
    <contour>
      <point x="633" y="21" type="curve" smooth="yes"/>
      <point x="503" y="21"/>
      <point x="425" y="92"/>
      <point x="398" y="211" type="curve"/>
      <point x="355" y="211" type="line"/>
      <point x="355" y="0" type="line"/>
      <point x="384" y="0" type="line"/>
      <point x="395" y="160" type="line"/>
      <point x="396" y="178"/>
      <point x="391" y="177"/>
      <point x="377" y="179" type="curve"/>
      <point x="409" y="59"/>
      <point x="488" y="-10"/>
      <point x="632" y="-10" type="curve" smooth="yes"/>
      <point x="769" y="-10"/>
      <point x="857" y="64"/>
      <point x="857" y="182" type="curve" smooth="yes"/>
      <point x="857" y="333"/>
      <point x="704" y="400"/>
      <point x="535" y="414" type="curve"/>
      <point x="535" y="405" type="line"/>
      <point x="756" y="682" type="line"/>
      <point x="756" y="710" type="line"/>
      <point x="438" y="710" type="line" smooth="yes"/>
      <point x="235" y="710"/>
      <point x="164" y="639"/>
      <point x="164" y="477" type="curve" smooth="yes"/>
      <point x="164" y="67" type="line" smooth="yes"/>
      <point x="164" y="38"/>
      <point x="122" y="31"/>
      <point x="65" y="31" type="curve" smooth="yes"/>
      <point x="52" y="31" type="line"/>
      <point x="52" y="0" type="line"/>
      <point x="204" y="0" type="line"/>
      <point x="204" y="490" type="line" smooth="yes"/>
      <point x="204" y="618"/>
      <point x="260" y="679"/>
      <point x="438" y="679" type="curve" smooth="yes"/>
      <point x="729" y="679" type="line"/>
      <point x="733" y="684"/>
      <point x="728" y="698"/>
      <point x="720" y="695" type="curve"/>
      <point x="493" y="411" type="line"/>
      <point x="493" y="385" type="line"/>
      <point x="690" y="375"/>
      <point x="817" y="316"/>
      <point x="817" y="182" type="curve" smooth="yes"/>
      <point x="817" y="82"/>
      <point x="748" y="21"/>
    </contour>
  </outline>
</glyph>
<glyph name="dagger" format="2">
  <advance width="461"/>
  <unicode hex="2020"/>
  <outline>
    <contour>
      <point x="227" y="505" type="line"/>
      <point x="234" y="505" type="line"/>
      <point x="404" y="491" type="line"/>
      <point x="439" y="491" type="line"/>
      <point x="439" y="535" type="line"/>
      <point x="404" y="535" type="line"/>
      <point x="234" y="524" type="line"/>
      <point x="227" y="524" type="line"/>
      <point x="57" y="535" type="line"/>
      <point x="22" y="535" type="line"/>
      <point x="22" y="491" type="line"/>
      <point x="57" y="491" type="line"/>
    </contour>
    <contour>
      <point x="250" y="710" type="line"/>
      <point x="211" y="710" type="line"/>
      <point x="211" y="675" type="line" smooth="yes"/>
      <point x="211" y="640"/>
      <point x="217" y="586"/>
      <point x="217" y="508" type="curve" smooth="yes"/>
      <point x="217" y="440"/>
      <point x="213" y="403"/>
      <point x="204" y="377" type="curve"/>
      <point x="204" y="357" type="line" smooth="yes"/>
      <point x="204" y="316"/>
      <point x="212" y="219"/>
      <point x="220" y="0" type="curve"/>
      <point x="241" y="0" type="line"/>
      <point x="249" y="219"/>
      <point x="256" y="316"/>
      <point x="256" y="357" type="curve" smooth="yes"/>
      <point x="256" y="377" type="line"/>
      <point x="249" y="403"/>
      <point x="245" y="440"/>
      <point x="245" y="508" type="curve" smooth="yes"/>
      <point x="245" y="586"/>
      <point x="250" y="640"/>
      <point x="250" y="675" type="curve" smooth="yes"/>
    </contour>
  </outline>
</glyph>
<glyph name="perthousand" format="2">
  <advance width="1288"/>
  <unicode hex="2030"/>
  <outline>
    <contour>
      <point x="226" y="413" type="curve" smooth="yes"/>
      <point x="154" y="413"/>
      <point x="110" y="469"/>
      <point x="110" y="551" type="curve" smooth="yes"/>
      <point x="110" y="633"/>
      <point x="154" y="689"/>
      <point x="226" y="689" type="curve" smooth="yes"/>
      <point x="298" y="689"/>
      <point x="342" y="633"/>
      <point x="342" y="551" type="curve" smooth="yes"/>
      <point x="342" y="469"/>
      <point x="298" y="413"/>
    </contour>
    <contour>
      <point x="226" y="382" type="curve" smooth="yes"/>
      <point x="320" y="382"/>
      <point x="388" y="454"/>
      <point x="388" y="551" type="curve" smooth="yes"/>
      <point x="388" y="649"/>
      <point x="320" y="720"/>
      <point x="226" y="720" type="curve" smooth="yes"/>
      <point x="132" y="720"/>
      <point x="64" y="648"/>
      <point x="64" y="551" type="curve" smooth="yes"/>
      <point x="64" y="453"/>
      <point x="132" y="382"/>
    </contour>
    <contour>
      <point x="96" y="0" type="line"/>
      <point x="824" y="710" type="line"/>
      <point x="782" y="710" type="line"/>
      <point x="54" y="0" type="line"/>
    </contour>
    <contour>
      <point x="647" y="21" type="curve" smooth="yes"/>
      <point x="575" y="21"/>
      <point x="531" y="77"/>
      <point x="531" y="159" type="curve" smooth="yes"/>
      <point x="531" y="241"/>
      <point x="575" y="297"/>
      <point x="647" y="297" type="curve" smooth="yes"/>
      <point x="719" y="297"/>
      <point x="763" y="241"/>
      <point x="763" y="159" type="curve" smooth="yes"/>
      <point x="763" y="77"/>
      <point x="719" y="21"/>
    </contour>
    <contour>
      <point x="647" y="-10" type="curve" smooth="yes"/>
      <point x="741" y="-10"/>
      <point x="809" y="62"/>
      <point x="809" y="159" type="curve" smooth="yes"/>
      <point x="809" y="257"/>
      <point x="741" y="328"/>
      <point x="647" y="328" type="curve" smooth="yes"/>
      <point x="553" y="328"/>
      <point x="485" y="256"/>
      <point x="485" y="159" type="curve" smooth="yes"/>
      <point x="485" y="61"/>
      <point x="553" y="-10"/>
    </contour>
    <contour>
      <point x="1070" y="21" type="curve" smooth="yes"/>
      <point x="998" y="21"/>
      <point x="954" y="77"/>
      <point x="954" y="159" type="curve" smooth="yes"/>
      <point x="954" y="241"/>
      <point x="998" y="297"/>
      <point x="1070" y="297" type="curve" smooth="yes"/>
      <point x="1142" y="297"/>
      <point x="1186" y="241"/>
      <point x="1186" y="159" type="curve" smooth="yes"/>
      <point x="1186" y="77"/>
      <point x="1142" y="21"/>
    </contour>
    <contour>
      <point x="1070" y="-10" type="curve" smooth="yes"/>
      <point x="1164" y="-10"/>
      <point x="1232" y="62"/>
      <point x="1232" y="159" type="curve" smooth="yes"/>
      <point x="1232" y="257"/>
      <point x="1164" y="328"/>
      <point x="1070" y="328" type="curve" smooth="yes"/>
      <point x="976" y="328"/>
      <point x="908" y="256"/>
      <point x="908" y="159" type="curve" smooth="yes"/>
      <point x="908" y="61"/>
      <point x="976" y="-10"/>
    </contour>
  </outline>
</glyph>
<glyph name="guilsinglleft" format="2">
  <advance width="340"/>
  <unicode hex="2039"/>
  <outline>
    <contour>
      <point x="118" y="247" type="line"/>
      <point x="259" y="455" type="line"/>
      <point x="230" y="455" type="line"/>
      <point x="81" y="282" type="line"/>
      <point x="81" y="248" type="line"/>
      <point x="230" y="75" type="line"/>
      <point x="259" y="75" type="line"/>
      <point x="118" y="281" type="line"/>
    </contour>
  </outline>
</glyph>
<glyph name="peseta" format="2">
  <advance width="652"/>
  <unicode hex="20A7"/>
  <outline>
    <contour>
      <point x="-9" y="0" type="line"/>
      <point x="221" y="0" type="line"/>
      <point x="221" y="31" type="line"/>
      <point x="190" y="31" type="line" smooth="yes"/>
      <point x="154" y="31"/>
      <point x="119" y="34"/>
      <point x="119" y="41" type="curve" smooth="yes"/>
      <point x="119" y="278" type="line"/>
      <point x="138" y="278" type="line" smooth="yes"/>
      <point x="309" y="278"/>
      <point x="393" y="367"/>
      <point x="393" y="498" type="curve" smooth="yes"/>
      <point x="393" y="628"/>
      <point x="312" y="710"/>
      <point x="144" y="710" type="curve" smooth="yes"/>
      <point x="-9" y="710" type="line"/>
      <point x="-9" y="679" type="line"/>
      <point x="4" y="679" type="line" smooth="yes"/>
      <point x="49" y="679"/>
      <point x="78" y="672"/>
      <point x="78" y="643" type="curve" smooth="yes"/>
      <point x="78" y="67" type="line" smooth="yes"/>
      <point x="78" y="38"/>
      <point x="49" y="31"/>
      <point x="4" y="31" type="curve" smooth="yes"/>
      <point x="-9" y="31" type="line"/>
    </contour>
    <contour>
      <point x="143" y="679" type="line" smooth="yes"/>
      <point x="285" y="679"/>
      <point x="348" y="612"/>
      <point x="348" y="497" type="curve" smooth="yes"/>
      <point x="348" y="383"/>
      <point x="286" y="309"/>
      <point x="137" y="309" type="curve" smooth="yes"/>
      <point x="119" y="309" type="line"/>
      <point x="119" y="679" type="line"/>
    </contour>
    <contour>
      <point x="520" y="508" type="line"/>
      <point x="476" y="492" type="line"/>
      <point x="476" y="111" type="line" smooth="yes"/>
      <point x="476" y="24"/>
      <point x="535" y="-11"/>
      <point x="602" y="-11" type="curve" smooth="yes"/>
      <point x="638" y="-11"/>
      <point x="663" y="-5"/>
      <point x="674" y="1" type="curve"/>
      <point x="674" y="34" type="line"/>
      <point x="666" y="31"/>
      <point x="638" y="23"/>
      <point x="610" y="23" type="curve" smooth="yes"/>
      <point x="557" y="23"/>
      <point x="517" y="52"/>
      <point x="517" y="111" type="curve" smooth="yes"/>
      <point x="517" y="648" type="line"/>
      <point x="483" y="648" type="line"/>
      <point x="483" y="554" type="line"/>
      <point x="483" y="512"/>
      <point x="452" y="503"/>
      <point x="392" y="503" type="curve" smooth="yes"/>
      <point x="372" y="503" type="line"/>
      <point x="372" y="477" type="line"/>
      <point x="658" y="477" type="line"/>
      <point x="658" y="508" type="line"/>
    </contour>
  </outline>
</glyph>
<glyph name="won" format="2">
  <advance width="652"/>
  <unicode hex="20A9"/>
  <outline>
    <contour>
      <point x="-18" y="710" type="line"/>
      <point x="-18" y="679" type="line"/>
      <point x="-13" y="679" type="line" smooth="yes"/>
      <point x="22" y="679"/>
      <point x="46" y="676"/>
      <point x="51" y="642" type="curve" smooth="yes"/>
      <point x="158" y="0" type="line"/>
      <point x="203" y="0" type="line"/>
      <point x="331" y="685" type="line"/>
      <point x="322" y="689" type="line"/>
      <point x="462" y="0" type="line"/>
      <point x="513" y="0" type="line"/>
      <point x="600" y="636" type="line" smooth="yes"/>
      <point x="606" y="670"/>
      <point x="631" y="679"/>
      <point x="663" y="679" type="curve" smooth="yes"/>
      <point x="669" y="679" type="line"/>
      <point x="669" y="710" type="line"/>
      <point x="479" y="710" type="line"/>
      <point x="479" y="679" type="line"/>
      <point x="497" y="679" type="line" smooth="yes"/>
      <point x="531" y="679"/>
      <point x="574" y="672"/>
      <point x="574" y="661" type="curve"/>
      <point x="483" y="15" type="line"/>
      <point x="492" y="12" type="line"/>
      <point x="349" y="710" type="line"/>
      <point x="306" y="710" type="line"/>
      <point x="178" y="19" type="line"/>
      <point x="188" y="19" type="line"/>
      <point x="81" y="669" type="line"/>
      <point x="81" y="676"/>
      <point x="126" y="679"/>
      <point x="160" y="679" type="curve" smooth="yes"/>
      <point x="181" y="679" type="line"/>
      <point x="181" y="710" type="line"/>
    </contour>
    <contour>
      <point x="-18" y="439" type="line"/>
      <point x="-18" y="408" type="line"/>
      <point x="99" y="408" type="line"/>
      <point x="107" y="408" type="line"/>
      <point x="267" y="408" type="line"/>
      <point x="279" y="439" type="line"/>
    </contour>
    <contour>
      <point x="394" y="408" type="line"/>
      <point x="546" y="408" type="line"/>
      <point x="566" y="408" type="line"/>
      <point x="669" y="408" type="line"/>
      <point x="669" y="439" type="line"/>
      <point x="388" y="439" type="line"/>
    </contour>
    <contour>
      <point x="229" y="252" type="line"/>
      <point x="431" y="252" type="line"/>
      <point x="414" y="283" type="line"/>
      <point x="332" y="283" type="line"/>
      <point x="241" y="283" type="line"/>
    </contour>
    <contour>
      <point x="122" y="283" type="line"/>
      <point x="-18" y="283" type="line"/>
      <point x="-18" y="252" type="line"/>
      <point x="128" y="252" type="line"/>
    </contour>
    <contour>
      <point x="541" y="252" type="line"/>
      <point x="669" y="252" type="line"/>
      <point x="669" y="283" type="line"/>
      <point x="539" y="283" type="line"/>
    </contour>
  </outline>
</glyph>
<glyph name="dong" format="2">
  <advance width="652"/>
  <unicode hex="20AB"/>
  <outline>
    <contour>
      <point x="91" y="250" type="curve" smooth="yes"/>
      <point x="91" y="392"/>
      <point x="165" y="487"/>
      <point x="298" y="487" type="curve" smooth="yes"/>
      <point x="399" y="487"/>
      <point x="469" y="424"/>
      <point x="507" y="325" type="curve"/>
      <point x="528" y="346" type="line"/>
      <point x="479" y="457"/>
      <point x="413" y="518"/>
      <point x="295" y="518" type="curve" smooth="yes"/>
      <point x="148" y="518"/>
      <point x="47" y="408"/>
      <point x="47" y="250" type="curve" smooth="yes"/>
      <point x="47" y="93"/>
      <point x="137" y="-11"/>
      <point x="279" y="-11" type="curve" smooth="yes"/>
      <point x="406" y="-11"/>
      <point x="477" y="62"/>
      <point x="538" y="169" type="curve"/>
      <point x="522" y="196" type="line"/>
      <point x="468" y="95"/>
      <point x="394" y="20"/>
      <point x="286" y="20" type="curve" smooth="yes"/>
      <point x="158" y="20"/>
      <point x="91" y="109"/>
    </contour>
    <contour>
      <point x="501" y="735" type="line"/>
      <point x="501" y="136" type="line"/>
      <point x="500" y="131" type="line"/>
      <point x="500" y="0" type="line"/>
      <point x="640" y="0" type="line"/>
      <point x="640" y="28" type="line"/>
      <point x="639" y="28" type="line"/>
      <point x="582" y="28"/>
      <point x="541" y="35"/>
      <point x="541" y="64" type="curve" smooth="yes"/>
      <point x="541" y="735" type="line"/>
    </contour>
    <contour>
      <point x="110" y="-126" type="line"/>
      <point x="110" y="-157" type="line"/>
      <point x="568" y="-157" type="line"/>
      <point x="568" y="-126" type="line"/>
    </contour>
    <contour>
      <point x="273" y="629" type="line"/>
      <point x="273" y="598" type="line"/>
      <point x="638" y="598" type="line"/>
      <point x="638" y="629" type="line"/>
    </contour>
  </outline>
</glyph>
<glyph name="peso" format="2">
  <advance width="652"/>
  <unicode hex="20B1"/>
  <outline>
    <contour>
      <point x="3" y="0" type="line"/>
      <point x="281" y="0" type="line"/>
      <point x="281" y="31" type="line"/>
      <point x="249" y="31" type="line" smooth="yes"/>
      <point x="209" y="31"/>
      <point x="158" y="34"/>
      <point x="158" y="41" type="curve" smooth="yes"/>
      <point x="158" y="261" type="line"/>
      <point x="254" y="261" type="line" smooth="yes"/>
      <point x="451" y="261"/>
      <point x="545" y="354"/>
      <point x="545" y="489" type="curve" smooth="yes"/>
      <point x="545" y="624"/>
      <point x="455" y="710"/>
      <point x="260" y="710" type="curve" smooth="yes"/>
      <point x="3" y="710" type="line"/>
      <point x="3" y="679" type="line"/>
      <point x="16" y="679" type="line" smooth="yes"/>
      <point x="74" y="679"/>
      <point x="117" y="672"/>
      <point x="117" y="643" type="curve" smooth="yes"/>
      <point x="117" y="67" type="line" smooth="yes"/>
      <point x="117" y="38"/>
      <point x="74" y="31"/>
      <point x="16" y="31" type="curve" smooth="yes"/>
      <point x="3" y="31" type="line"/>
    </contour>
    <contour>
      <point x="260" y="679" type="line" smooth="yes"/>
      <point x="428" y="679"/>
      <point x="500" y="609"/>
      <point x="500" y="488" type="curve" smooth="yes"/>
      <point x="500" y="369"/>
      <point x="429" y="291"/>
      <point x="254" y="291" type="curve" smooth="yes"/>
      <point x="158" y="291" type="line"/>
      <point x="158" y="679" type="line"/>
    </contour>
    <contour>
      <point x="3" y="503" type="line"/>
      <point x="3" y="472" type="line"/>
      <point x="141" y="472" type="line"/>
      <point x="143" y="472" type="line"/>
      <point x="519" y="472" type="line"/>
      <point x="528" y="472" type="line"/>
      <point x="642" y="472" type="line"/>
      <point x="642" y="503" type="line"/>
      <point x="531" y="503" type="line"/>
      <point x="520" y="503" type="line"/>
      <point x="150" y="503" type="line"/>
      <point x="142" y="503" type="line"/>
    </contour>
  </outline>
</glyph>
<glyph name="ruble" format="2">
  <advance width="654"/>
  <unicode hex="20BD"/>
  <outline>
    <contour>
      <point x="41" y="375" type="line"/>
      <point x="354" y="375" type="line" smooth="yes"/>
      <point x="528" y="375"/>
      <point x="590" y="436"/>
      <point x="590" y="530" type="curve" smooth="yes"/>
      <point x="590" y="624"/>
      <point x="527" y="679"/>
      <point x="360" y="679" type="curve" smooth="yes"/>
      <point x="194" y="679" type="line"/>
      <point x="194" y="41" type="line" smooth="yes"/>
      <point x="194" y="34"/>
      <point x="243" y="31"/>
      <point x="284" y="31" type="curve" smooth="yes"/>
      <point x="315" y="31" type="line"/>
      <point x="315" y="0" type="line"/>
      <point x="41" y="0" type="line"/>
      <point x="41" y="31" type="line"/>
      <point x="54" y="31" type="line" smooth="yes"/>
      <point x="111" y="31"/>
      <point x="153" y="38"/>
      <point x="153" y="67" type="curve" smooth="yes"/>
      <point x="153" y="643" type="line" smooth="yes"/>
      <point x="153" y="672"/>
      <point x="111" y="679"/>
      <point x="54" y="679" type="curve" smooth="yes"/>
      <point x="41" y="679" type="line"/>
      <point x="41" y="710" type="line"/>
      <point x="360" y="710" type="line" smooth="yes"/>
      <point x="553" y="710"/>
      <point x="633" y="641"/>
      <point x="633" y="531" type="curve" smooth="yes"/>
      <point x="633" y="421"/>
      <point x="549" y="345"/>
      <point x="354" y="345" type="curve" smooth="yes"/>
      <point x="41" y="345" type="line"/>
    </contour>
    <contour>
      <point x="438" y="187" type="line"/>
      <point x="41" y="187" type="line"/>
      <point x="41" y="217" type="line"/>
      <point x="438" y="217" type="line"/>
    </contour>
  </outline>
</glyph>
<glyph name="summation" format="2">
  <advance width="632"/>
  <unicode hex="2211"/>
  <outline>
    <contour>
      <point x="28" y="-223" type="line"/>
      <point x="28" y="-190" type="line"/>
      <point x="367" y="278" type="line"/>
      <point x="363" y="257" type="line"/>
      <point x="28" y="677" type="line"/>
      <point x="28" y="710" type="line"/>
      <point x="577" y="710" type="line"/>
      <point x="577" y="541" type="line"/>
      <point x="551" y="541" type="line"/>
      <point x="540" y="636" type="line" smooth="yes"/>
      <point x="537" y="672"/>
      <point x="494" y="679"/>
      <point x="394" y="679" type="curve" smooth="yes"/>
      <point x="46" y="679" type="line"/>
      <point x="70" y="687" type="line"/>
      <point x="397" y="277" type="line"/>
      <point x="397" y="252" type="line"/>
      <point x="69" y="-204" type="line"/>
      <point x="55" y="-192" type="line"/>
      <point x="420" y="-192" type="line" smooth="yes"/>
      <point x="520" y="-192"/>
      <point x="562" y="-185"/>
      <point x="565" y="-149" type="curve" smooth="yes"/>
      <point x="576" y="-29" type="line"/>
      <point x="604" y="-29" type="line"/>
      <point x="604" y="-223" type="line"/>
    </contour>
  </outline>
</glyph>
<glyph name="hook" format="2">
  <advance width="594"/>
  <unicode hex="2440"/>
  <anchor x="273" y="517" name="_top"/>
  <outline>
    <contour>
      <point x="161" y="691" type="line"/>
      <point x="168" y="732"/>
      <point x="207" y="767"/>
      <point x="280" y="767" type="curve" smooth="yes"/>
      <point x="345" y="767"/>
      <point x="382" y="744"/>
      <point x="382" y="699" type="curve" smooth="yes"/>
      <point x="382" y="649"/>
      <point x="325" y="623"/>
      <point x="260" y="620" type="curve"/>
      <point x="290" y="646" type="line"/>
      <point x="290" y="580" type="line"/>
      <point x="247" y="580" type="line"/>
      <point x="247" y="646" type="line"/>
      <point x="301" y="648"/>
      <point x="340" y="663"/>
      <point x="340" y="698" type="curve" smooth="yes"/>
      <point x="340" y="725"/>
      <point x="317" y="741"/>
      <point x="280" y="741" type="curve" smooth="yes"/>
      <point x="229" y="741"/>
      <point x="211" y="719"/>
      <point x="204" y="691" type="curve"/>
    </contour>
  </outline>
</glyph>
<glyph name="uni25B5" format="2">
  <advance width="728"/>
  <unicode hex="25B5"/>
  <outline>
    <contour>
      <point x="676" y="91" type="line"/>
      <point x="364" y="464" type="line"/>
      <point x="52" y="91" type="line"/>
    </contour>
    <contour>
      <point x="160" y="125" type="line"/>
      <point x="370" y="380" type="line"/>
      <point x="358" y="380" type="line"/>
      <point x="568" y="125" type="line"/>
      <point x="576" y="141" type="line"/>
      <point x="151" y="141" type="line"/>
    </contour>
  </outline>
</glyph>
<glyph name="lozenge" format="2">
  <advance width="750"/>
  <unicode hex="25CA"/>
  <outline>
    <contour>
      <point x="370" y="25" type="line"/>
      <point x="380" y="25" type="line"/>
      <point x="80" y="373" type="line"/>
      <point x="80" y="337" type="line"/>
      <point x="380" y="685" type="line"/>
      <point x="370" y="685" type="line"/>
      <point x="670" y="337" type="line"/>
      <point x="670" y="373" type="line"/>
    </contour>
    <contour>
      <point x="355" y="0" type="line"/>
      <point x="395" y="0" type="line"/>
      <point x="691" y="342" type="line"/>
      <point x="691" y="368" type="line"/>
      <point x="395" y="710" type="line"/>
      <point x="355" y="710" type="line"/>
      <point x="59" y="368" type="line"/>
      <point x="59" y="342" type="line"/>
    </contour>
  </outline>
</glyph>
<glyph name="f_f_i" format="2">
  <advance width="1100"/>
  <unicode hex="FB03"/>
  <outline>
    <contour>
      <point x="40" y="508" type="line"/>
      <point x="40" y="480" type="line"/>
      <point x="518" y="480" type="line"/>
      <point x="518" y="508" type="line"/>
    </contour>
    <contour>
      <point x="420" y="508" type="line"/>
      <point x="420" y="480" type="line"/>
      <point x="891" y="480" type="line"/>
      <point x="891" y="508" type="line"/>
    </contour>
    <contour>
      <point x="929" y="656" type="curve" smooth="yes"/>
      <point x="955" y="656"/>
      <point x="974" y="670"/>
      <point x="974" y="696" type="curve" smooth="yes"/>
      <point x="974" y="723"/>
      <point x="955" y="737"/>
      <point x="929" y="737" type="curve" smooth="yes"/>
      <point x="904" y="737"/>
      <point x="885" y="723"/>
      <point x="885" y="696" type="curve" smooth="yes"/>
      <point x="885" y="670"/>
      <point x="904" y="656"/>
    </contour>
    <contour>
      <point x="823" y="0" type="line"/>
      <point x="1060" y="0" type="line"/>
      <point x="1060" y="28" type="line"/>
      <point x="1057" y="28" type="line" smooth="yes"/>
      <point x="1001" y="28"/>
      <point x="962" y="35"/>
      <point x="962" y="64" type="curve" smooth="yes"/>
      <point x="962" y="508" type="line"/>
      <point x="824" y="508" type="line"/>
      <point x="824" y="480" type="line"/>
      <point x="835" y="480" type="line" smooth="yes"/>
      <point x="894" y="480"/>
      <point x="921" y="466"/>
      <point x="921" y="437" type="curve"/>
      <point x="921" y="38" type="line"/>
      <point x="921" y="31"/>
      <point x="869" y="28"/>
      <point x="836" y="28" type="curve" smooth="yes"/>
      <point x="823" y="28" type="line"/>
    </contour>
    <contour>
      <point x="203" y="38" type="curve"/>
      <point x="203" y="576" type="line" smooth="yes"/>
      <point x="203" y="675"/>
      <point x="246" y="709"/>
      <point x="321" y="709" type="curve" smooth="yes"/>
      <point x="359" y="709"/>
      <point x="389" y="700"/>
      <point x="414" y="692" type="curve"/>
      <point x="414" y="727" type="line"/>
      <point x="392" y="733"/>
      <point x="359" y="737"/>
      <point x="324" y="737" type="curve" smooth="yes"/>
      <point x="228" y="737"/>
      <point x="162" y="690"/>
      <point x="162" y="576" type="curve" smooth="yes"/>
      <point x="162" y="64" type="line"/>
      <point x="162" y="35"/>
      <point x="123" y="28"/>
      <point x="59" y="28" type="curve" smooth="yes"/>
      <point x="46" y="28" type="line"/>
      <point x="46" y="0" type="line"/>
      <point x="331" y="0" type="line"/>
      <point x="331" y="28" type="line"/>
      <point x="315" y="28" type="line" smooth="yes"/>
      <point x="251" y="28"/>
      <point x="203" y="31"/>
    </contour>
    <contour>
      <point x="541" y="38" type="line"/>
      <point x="541" y="31"/>
      <point x="493" y="28"/>
      <point x="429" y="28" type="curve" smooth="yes"/>
      <point x="426" y="28" type="line"/>
      <point x="426" y="0" type="line"/>
      <point x="709" y="0" type="line"/>
      <point x="709" y="28" type="line"/>
      <point x="694" y="28" type="line" smooth="yes"/>
      <point x="630" y="28"/>
      <point x="582" y="31"/>
      <point x="582" y="38" type="curve"/>
      <point x="582" y="591" type="line" smooth="yes"/>
      <point x="582" y="690"/>
      <point x="626" y="724"/>
      <point x="698" y="724" type="curve" smooth="yes"/>
      <point x="734" y="724"/>
      <point x="764" y="715"/>
      <point x="787" y="707" type="curve"/>
      <point x="787" y="742" type="line"/>
      <point x="767" y="748"/>
      <point x="734" y="752"/>
      <point x="701" y="752" type="curve" smooth="yes"/>
      <point x="607" y="752"/>
      <point x="541" y="705"/>
      <point x="541" y="591" type="curve"/>
    </contour>
  </outline>
</glyph>
<glyph name="F.alt" format="2">
  <advance width="676"/>
  <outline>
    <contour>
      <point x="205" y="679" type="line"/>
      <point x="415" y="679" type="line" smooth="yes"/>
      <point x="515" y="679"/>
      <point x="555" y="672"/>
      <point x="561" y="636" type="curve" smooth="yes"/>
      <point x="571" y="546" type="line"/>
      <point x="598" y="546" type="line"/>
      <point x="598" y="710" type="line"/>
      <point x="52" y="710" type="line"/>
      <point x="52" y="679" type="line"/>
      <point x="65" y="679" type="line" smooth="yes"/>
      <point x="122" y="679"/>
      <point x="164" y="672"/>
      <point x="164" y="643" type="curve" smooth="yes"/>
      <point x="164" y="67" type="line" smooth="yes"/>
      <point x="164" y="38"/>
      <point x="122" y="31"/>
      <point x="65" y="31" type="curve" smooth="yes"/>
      <point x="52" y="31" type="line"/>
      <point x="52" y="0" type="line"/>
      <point x="335" y="0" type="line"/>
      <point x="335" y="31" type="line"/>
      <point x="316" y="31" type="line" smooth="yes"/>
      <point x="265" y="31"/>
      <point x="205" y="32"/>
      <point x="205" y="67" type="curve" smooth="yes"/>
    </contour>
    <contour>
      <point x="184" y="372" type="line"/>
      <point x="184" y="341" type="line"/>
      <point x="456" y="341" type="line" smooth="yes"/>
      <point x="493" y="341"/>
      <point x="504" y="312"/>
      <point x="504" y="278" type="curve" smooth="yes"/>
      <point x="504" y="270" type="line"/>
      <point x="532" y="270" type="line"/>
      <point x="532" y="444" type="line"/>
      <point x="504" y="444" type="line"/>
      <point x="504" y="436" type="line" smooth="yes"/>
      <point x="504" y="401"/>
      <point x="493" y="372"/>
      <point x="456" y="372" type="curve" smooth="yes"/>
    </contour>
  </outline>
</glyph>
<glyph name="acute.ucpl" format="2">
  <advance width="582"/>
  <anchor x="224" y="694" name="_top"/>
  <outline>
    <contour>
      <point x="223" y="853" type="curve" smooth="yes"/>
      <point x="211" y="767" type="line"/>
      <point x="211" y="750" type="line"/>
      <point x="230" y="750" type="line"/>
      <point x="274" y="833" type="line" smooth="yes"/>
      <point x="280" y="849"/>
      <point x="285" y="864"/>
      <point x="285" y="878" type="curve" smooth="yes"/>
      <point x="285" y="894"/>
      <point x="275" y="904"/>
      <point x="258" y="904" type="curve" smooth="yes"/>
      <point x="235" y="904"/>
      <point x="226" y="887"/>
    </contour>
  </outline>
</glyph>
<glyph name="breve_acute.uc" format="2">
  <advance width="594"/>
  <anchor x="290" y="744" name="_top"/>
  <outline>
    <contour>
      <point x="373" y="1018" type="curve" smooth="yes"/>
      <point x="270" y="930" type="line"/>
      <point x="270" y="916" type="line"/>
      <point x="285" y="916" type="line"/>
      <point x="411" y="987" type="line" smooth="yes"/>
      <point x="443" y="1006"/>
      <point x="460" y="1017"/>
      <point x="460" y="1034" type="curve" smooth="yes"/>
      <point x="460" y="1047"/>
      <point x="450" y="1056"/>
      <point x="434" y="1056" type="curve" smooth="yes"/>
      <point x="412" y="1056"/>
      <point x="401" y="1042"/>
    </contour>
    <component base="breve.uc"/>
  </outline>
</glyph>
<glyph name="breve_grave.uc" format="2">
  <advance width="594"/>
  <anchor x="282" y="744" name="_top"/>
  <outline>
    <contour>
      <point x="247" y="1018" type="curve" smooth="yes"/>
      <point x="350" y="930" type="line"/>
      <point x="350" y="916" type="line"/>
      <point x="335" y="916" type="line"/>
      <point x="209" y="987" type="line" smooth="yes"/>
      <point x="177" y="1006"/>
      <point x="160" y="1017"/>
      <point x="160" y="1034" type="curve" smooth="yes"/>
      <point x="160" y="1047"/>
      <point x="170" y="1056"/>
      <point x="186" y="1056" type="curve" smooth="yes"/>
      <point x="208" y="1056"/>
      <point x="220" y="1042"/>
    </contour>
    <component base="breve.uc"/>
  </outline>
</glyph>
<glyph name="breve_tilde" format="2">
  <advance width="581"/>
  <anchor x="289" y="524" name="_top"/>
  <outline>
    <contour>
      <point x="361" y="775" type="curve" smooth="yes"/>
      <point x="414" y="775"/>
      <point x="440" y="811"/>
      <point x="462" y="873" type="curve"/>
      <point x="431" y="882" type="line"/>
      <point x="414" y="837"/>
      <point x="400" y="809"/>
      <point x="367" y="809" type="curve" smooth="yes"/>
      <point x="313" y="809"/>
      <point x="284" y="885"/>
      <point x="202" y="885" type="curve" smooth="yes"/>
      <point x="151" y="885"/>
      <point x="120" y="851"/>
      <point x="106" y="785" type="curve"/>
      <point x="137" y="775" type="line"/>
      <point x="149" y="824"/>
      <point x="161" y="851"/>
      <point x="198" y="851" type="curve" smooth="yes"/>
      <point x="252" y="851"/>
      <point x="276" y="775"/>
    </contour>
    <contour>
      <point x="295" y="594" type="curve" smooth="yes"/>
      <point x="215" y="594"/>
      <point x="161" y="639"/>
      <point x="156" y="722" type="curve"/>
      <point x="187" y="722" type="line"/>
      <point x="198" y="658"/>
      <point x="233" y="635"/>
      <point x="295" y="635" type="curve" smooth="yes"/>
      <point x="355" y="635"/>
      <point x="393" y="658"/>
      <point x="404" y="722" type="curve"/>
      <point x="433" y="722" type="line"/>
      <point x="428" y="639"/>
      <point x="374" y="594"/>
    </contour>
  </outline>
</glyph>
<glyph name="circumflex_grave" format="2">
  <advance width="594"/>
  <anchor x="288" y="564" name="_top"/>
  <outline>
    <contour>
      <point x="444" y="824" type="curve" smooth="yes"/>
      <point x="509" y="707" type="line"/>
      <point x="509" y="693" type="line"/>
      <point x="495" y="693" type="line"/>
      <point x="397" y="799" type="line" smooth="yes"/>
      <point x="381" y="816"/>
      <point x="367" y="831"/>
      <point x="367" y="847" type="curve" smooth="yes"/>
      <point x="367" y="861"/>
      <point x="377" y="871"/>
      <point x="395" y="871" type="curve" smooth="yes"/>
      <point x="417" y="871"/>
      <point x="427" y="854"/>
    </contour>
    <component base="circumflex"/>
  </outline>
</glyph>
<glyph name="circumflex_tilde.uc" format="2">
  <advance width="582"/>
  <anchor x="283" y="694" name="_top"/>
  <outline>
    <contour>
      <point x="323" y="859" type="line"/>
      <point x="452" y="759" type="line"/>
      <point x="452" y="749" type="line"/>
      <point x="428" y="749" type="line"/>
      <point x="250" y="839" type="line"/>
      <point x="307" y="839" type="line"/>
      <point x="137" y="749" type="line"/>
      <point x="118" y="749" type="line"/>
      <point x="118" y="759" type="line"/>
      <point x="245" y="859" type="line"/>
    </contour>
    <contour>
      <point x="363" y="892" type="curve" smooth="yes"/>
      <point x="417" y="892"/>
      <point x="444" y="925"/>
      <point x="465" y="984" type="curve"/>
      <point x="434" y="993" type="line"/>
      <point x="418" y="951"/>
      <point x="402" y="926"/>
      <point x="369" y="926" type="curve" smooth="yes"/>
      <point x="313" y="926"/>
      <point x="285" y="996"/>
      <point x="203" y="996" type="curve" smooth="yes"/>
      <point x="150" y="996"/>
      <point x="118" y="964"/>
      <point x="103" y="902" type="curve"/>
      <point x="134" y="892" type="line"/>
      <point x="146" y="937"/>
      <point x="160" y="962"/>
      <point x="198" y="962" type="curve" smooth="yes"/>
      <point x="251" y="962"/>
      <point x="275" y="892"/>
    </contour>
  </outline>
</glyph>
<glyph name="dong.proportional" format="2">
  <advance width="643"/>
  <outline>
    <contour>
      <point x="90" y="250" type="curve" smooth="yes"/>
      <point x="90" y="392"/>
      <point x="163" y="487"/>
      <point x="295" y="487" type="curve" smooth="yes"/>
      <point x="395" y="487"/>
      <point x="464" y="424"/>
      <point x="501" y="325" type="curve"/>
      <point x="523" y="346" type="line"/>
      <point x="474" y="457"/>
      <point x="409" y="518"/>
      <point x="292" y="518" type="curve" smooth="yes"/>
      <point x="146" y="518"/>
      <point x="46" y="408"/>
      <point x="46" y="250" type="curve" smooth="yes"/>
      <point x="46" y="93"/>
      <point x="135" y="-11"/>
      <point x="276" y="-11" type="curve" smooth="yes"/>
      <point x="402" y="-11"/>
      <point x="472" y="62"/>
      <point x="533" y="169" type="curve"/>
      <point x="516" y="196" type="line"/>
      <point x="463" y="95"/>
      <point x="390" y="20"/>
      <point x="283" y="20" type="curve" smooth="yes"/>
      <point x="156" y="20"/>
      <point x="90" y="109"/>
    </contour>
    <contour>
      <point x="495" y="711" type="line"/>
      <point x="495" y="136" type="line"/>
      <point x="494" y="131" type="line"/>
      <point x="494" y="0" type="line"/>
      <point x="634" y="0" type="line"/>
      <point x="634" y="28" type="line"/>
      <point x="633" y="28" type="line"/>
      <point x="576" y="28"/>
      <point x="536" y="35"/>
      <point x="536" y="64" type="curve" smooth="yes"/>
      <point x="536" y="711" type="line"/>
    </contour>
    <contour>
      <point x="106" y="-126" type="line"/>
      <point x="106" y="-157" type="line"/>
      <point x="564" y="-157" type="line"/>
      <point x="564" y="-126" type="line"/>
    </contour>
    <contour>
      <point x="269" y="614" type="line"/>
      <point x="269" y="584" type="line"/>
      <point x="631" y="584" type="line"/>
      <point x="631" y="614" type="line"/>
    </contour>
  </outline>
</glyph>
<glyph name="eight.linprop" format="2">
  <advance width="666"/>
  <outline>
    <contour>
      <point x="333" y="720" type="curve" smooth="yes"/>
      <point x="216" y="720"/>
      <point x="109" y="648"/>
      <point x="109" y="543" type="curve" smooth="yes"/>
      <point x="109" y="454"/>
      <point x="182" y="392"/>
      <point x="272" y="374" type="curve"/>
      <point x="253" y="384" type="line"/>
      <point x="253" y="371" type="line"/>
      <point x="272" y="382" type="line"/>
      <point x="154" y="364"/>
      <point x="59" y="294"/>
      <point x="59" y="192" type="curve" smooth="yes"/>
      <point x="59" y="72"/>
      <point x="186" y="-10"/>
      <point x="333" y="-10" type="curve" smooth="yes"/>
      <point x="481" y="-10"/>
      <point x="608" y="72"/>
      <point x="608" y="192" type="curve" smooth="yes"/>
      <point x="608" y="294"/>
      <point x="513" y="364"/>
      <point x="395" y="382" type="curve"/>
      <point x="413" y="371" type="line"/>
      <point x="413" y="384" type="line"/>
      <point x="395" y="374" type="line"/>
      <point x="485" y="392"/>
      <point x="558" y="454"/>
      <point x="558" y="543" type="curve" smooth="yes"/>
      <point x="558" y="648"/>
      <point x="450" y="720"/>
    </contour>
    <contour>
      <point x="333" y="21" type="curve" smooth="yes"/>
      <point x="204" y="21"/>
      <point x="102" y="89"/>
      <point x="102" y="197" type="curve" smooth="yes"/>
      <point x="102" y="300"/>
      <point x="204" y="361"/>
      <point x="333" y="361" type="curve" smooth="yes"/>
      <point x="463" y="361"/>
      <point x="565" y="300"/>
      <point x="565" y="197" type="curve" smooth="yes"/>
      <point x="565" y="89"/>
      <point x="463" y="21"/>
    </contour>
    <contour>
      <point x="333" y="391" type="curve" smooth="yes"/>
      <point x="236" y="391"/>
      <point x="151" y="447"/>
      <point x="151" y="538" type="curve" smooth="yes"/>
      <point x="151" y="630"/>
      <point x="230" y="689"/>
      <point x="333" y="689" type="curve" smooth="yes"/>
      <point x="437" y="689"/>
      <point x="516" y="630"/>
      <point x="516" y="538" type="curve" smooth="yes"/>
      <point x="516" y="447"/>
      <point x="430" y="391"/>
    </contour>
  </outline>
</glyph>
<glyph name="eight.lintab" format="2">
  <advance width="652"/>
  <outline>
    <contour>
      <point x="326" y="21" type="curve"/>
      <point x="203" y="21"/>
      <point x="106" y="89"/>
      <point x="106" y="197" type="curve" smooth="yes"/>
      <point x="106" y="300"/>
      <point x="203" y="361"/>
      <point x="326" y="361" type="curve"/>
      <point x="449" y="361"/>
      <point x="546" y="300"/>
      <point x="546" y="197" type="curve" smooth="yes"/>
      <point x="546" y="89"/>
      <point x="449" y="21"/>
    </contour>
    <contour>
      <point x="326" y="391" type="curve"/>
      <point x="229" y="391"/>
      <point x="145" y="447"/>
      <point x="145" y="538" type="curve" smooth="yes"/>
      <point x="145" y="630"/>
      <point x="223" y="689"/>
      <point x="326" y="689" type="curve"/>
      <point x="429" y="689"/>
      <point x="508" y="630"/>
      <point x="508" y="538" type="curve" smooth="yes"/>
      <point x="508" y="447"/>
      <point x="423" y="391"/>
    </contour>
    <contour>
      <point x="326" y="720" type="curve"/>
      <point x="209" y="720"/>
      <point x="103" y="648"/>
      <point x="103" y="543" type="curve" smooth="yes"/>
      <point x="103" y="453"/>
      <point x="175" y="392"/>
      <point x="265" y="374" type="curve"/>
      <point x="247" y="385" type="line"/>
      <point x="247" y="372" type="line"/>
      <point x="265" y="382" type="line"/>
      <point x="153" y="364"/>
      <point x="63" y="295"/>
      <point x="63" y="192" type="curve" smooth="yes"/>
      <point x="63" y="72"/>
      <point x="184" y="-10"/>
      <point x="326" y="-10" type="curve"/>
      <point x="469" y="-10"/>
      <point x="590" y="72"/>
      <point x="590" y="192" type="curve" smooth="yes"/>
      <point x="590" y="295"/>
      <point x="499" y="364"/>
      <point x="387" y="382" type="curve"/>
      <point x="406" y="372" type="line"/>
      <point x="406" y="385" type="line"/>
      <point x="387" y="374" type="line"/>
      <point x="477" y="392"/>
      <point x="550" y="453"/>
      <point x="550" y="543" type="curve" smooth="yes"/>
      <point x="550" y="648"/>
      <point x="443" y="720"/>
    </contour>
  </outline>
</glyph>
<glyph name="f_b" format="2">
  <advance width="1119"/>
  <outline>
    <contour>
      <point x="1024" y="257" type="curve" smooth="yes"/>
      <point x="1024" y="116"/>
      <point x="947" y="21"/>
      <point x="805" y="21" type="curve" smooth="yes"/>
      <point x="703" y="21"/>
      <point x="626" y="85"/>
      <point x="576" y="183" type="curve"/>
      <point x="555" y="162" type="line"/>
      <point x="616" y="52"/>
      <point x="689" y="-10"/>
      <point x="809" y="-10" type="curve" smooth="yes"/>
      <point x="965" y="-10"/>
      <point x="1068" y="99"/>
      <point x="1068" y="257" type="curve" smooth="yes"/>
      <point x="1068" y="414"/>
      <point x="970" y="518"/>
      <point x="818" y="518" type="curve" smooth="yes"/>
      <point x="690" y="518"/>
      <point x="617" y="449"/>
      <point x="544" y="338" type="curve"/>
      <point x="560" y="311" type="line"/>
      <point x="626" y="416"/>
      <point x="703" y="487"/>
      <point x="811" y="487" type="curve" smooth="yes"/>
      <point x="950" y="487"/>
      <point x="1024" y="398"/>
    </contour>
    <contour>
      <point x="541" y="703" type="line"/>
      <point x="541" y="-3" type="line"/>
      <point x="566" y="-3" type="line"/>
      <point x="584" y="125" type="line"/>
      <point x="582" y="140" type="line"/>
      <point x="582" y="735" type="line"/>
      <point x="481" y="735" type="line"/>
    </contour>
    <contour>
      <point x="40" y="508" type="line"/>
      <point x="40" y="480" type="line"/>
      <point x="393" y="480" type="line"/>
      <point x="393" y="508" type="line"/>
    </contour>
    <contour>
      <point x="203" y="595" type="line" smooth="yes"/>
      <point x="203" y="694"/>
      <point x="258" y="721"/>
      <point x="373" y="721" type="curve" smooth="yes"/>
      <point x="440" y="721"/>
      <point x="509" y="706"/>
      <point x="565" y="671" type="curve"/>
      <point x="574" y="711" type="line"/>
      <point x="531" y="727"/>
      <point x="467" y="752"/>
      <point x="373" y="752" type="curve" smooth="yes"/>
      <point x="240" y="752"/>
      <point x="162" y="709"/>
      <point x="162" y="595" type="curve" smooth="yes"/>
      <point x="162" y="64" type="line" smooth="yes"/>
      <point x="162" y="35"/>
      <point x="123" y="28"/>
      <point x="59" y="28" type="curve" smooth="yes"/>
      <point x="46" y="28" type="line"/>
      <point x="46" y="0" type="line"/>
      <point x="329" y="0" type="line"/>
      <point x="329" y="28" type="line"/>
      <point x="314" y="28" type="line" smooth="yes"/>
      <point x="251" y="28"/>
      <point x="203" y="31"/>
      <point x="203" y="38" type="curve" smooth="yes"/>
    </contour>
  </outline>
</glyph>
<glyph name="f_f_b" format="2">
  <advance width="1499"/>
  <outline>
    <contour>
      <point x="1403" y="257" type="curve" smooth="yes"/>
      <point x="1403" y="116"/>
      <point x="1328" y="21"/>
      <point x="1185" y="21" type="curve" smooth="yes"/>
      <point x="1083" y="21"/>
      <point x="1006" y="85"/>
      <point x="956" y="183" type="curve"/>
      <point x="935" y="162" type="line"/>
      <point x="996" y="52"/>
      <point x="1069" y="-10"/>
      <point x="1188" y="-10" type="curve" smooth="yes"/>
      <point x="1345" y="-10"/>
      <point x="1448" y="99"/>
      <point x="1448" y="257" type="curve" smooth="yes"/>
      <point x="1448" y="414"/>
      <point x="1349" y="518"/>
      <point x="1198" y="518" type="curve" smooth="yes"/>
      <point x="1070" y="518"/>
      <point x="996" y="449"/>
      <point x="924" y="338" type="curve"/>
      <point x="940" y="311" type="line"/>
      <point x="1006" y="416"/>
      <point x="1082" y="487"/>
      <point x="1191" y="487" type="curve" smooth="yes"/>
      <point x="1330" y="487"/>
      <point x="1403" y="398"/>
    </contour>
    <contour>
      <point x="40" y="508" type="line"/>
      <point x="40" y="480" type="line"/>
      <point x="518" y="480" type="line"/>
      <point x="518" y="508" type="line"/>
    </contour>
    <contour>
      <point x="420" y="508" type="line"/>
      <point x="420" y="480" type="line"/>
      <point x="772" y="480" type="line"/>
      <point x="772" y="508" type="line"/>
    </contour>
    <contour>
      <point x="962" y="735" type="line"/>
      <point x="860" y="735" type="line"/>
      <point x="921" y="703" type="line"/>
      <point x="921" y="-3" type="line"/>
      <point x="946" y="-3" type="line"/>
      <point x="963" y="125" type="line"/>
      <point x="962" y="140" type="line"/>
    </contour>
    <contour>
      <point x="162" y="64" type="line" smooth="yes"/>
      <point x="162" y="35"/>
      <point x="123" y="28"/>
      <point x="59" y="28" type="curve" smooth="yes"/>
      <point x="46" y="28" type="line"/>
      <point x="46" y="0" type="line"/>
      <point x="331" y="0" type="line"/>
      <point x="331" y="28" type="line"/>
      <point x="315" y="28" type="line" smooth="yes"/>
      <point x="251" y="28"/>
      <point x="203" y="31"/>
      <point x="203" y="38" type="curve"/>
      <point x="203" y="576" type="line" smooth="yes"/>
      <point x="203" y="675"/>
      <point x="246" y="709"/>
      <point x="321" y="709" type="curve" smooth="yes"/>
      <point x="359" y="709"/>
      <point x="389" y="700"/>
      <point x="414" y="692" type="curve"/>
      <point x="414" y="727" type="line"/>
      <point x="392" y="733"/>
      <point x="359" y="737"/>
      <point x="324" y="737" type="curve" smooth="yes"/>
      <point x="228" y="737"/>
      <point x="162" y="690"/>
      <point x="162" y="576" type="curve" smooth="yes"/>
    </contour>
    <contour>
      <point x="709" y="0" type="line"/>
      <point x="709" y="28" type="line"/>
      <point x="694" y="28" type="line" smooth="yes"/>
      <point x="630" y="28"/>
      <point x="582" y="31"/>
      <point x="582" y="38" type="curve" smooth="yes"/>
      <point x="582" y="595" type="line" smooth="yes"/>
      <point x="582" y="694"/>
      <point x="638" y="721"/>
      <point x="753" y="721" type="curve" smooth="yes"/>
      <point x="821" y="721"/>
      <point x="890" y="706"/>
      <point x="945" y="671" type="curve"/>
      <point x="953" y="711" type="line"/>
      <point x="910" y="727"/>
      <point x="847" y="752"/>
      <point x="753" y="752" type="curve" smooth="yes"/>
      <point x="619" y="752"/>
      <point x="541" y="709"/>
      <point x="541" y="595" type="curve"/>
      <point x="541" y="38" type="line"/>
      <point x="541" y="31"/>
      <point x="488" y="28"/>
      <point x="445" y="28" type="curve" smooth="yes"/>
      <point x="426" y="28" type="line"/>
      <point x="426" y="0" type="line"/>
    </contour>
  </outline>
</glyph>
<glyph name="f_f_h.alt" format="2">
  <advance width="1477"/>
  <outline>
    <contour>
      <point x="46" y="0" type="line"/>
      <point x="331" y="0" type="line"/>
      <point x="331" y="28" type="line"/>
      <point x="315" y="28" type="line" smooth="yes"/>
      <point x="251" y="28"/>
      <point x="203" y="31"/>
      <point x="203" y="38" type="curve" smooth="yes"/>
      <point x="203" y="559" type="line" smooth="yes"/>
      <point x="203" y="670"/>
      <point x="292" y="701"/>
      <point x="394" y="701" type="curve" smooth="yes"/>
      <point x="466" y="701"/>
      <point x="531" y="683"/>
      <point x="571" y="636" type="curve"/>
      <point x="577" y="678"/>
      <point x="564" y="680"/>
      <point x="541" y="691" type="curve"/>
      <point x="541" y="568" type="line"/>
      <point x="580" y="618" type="line"/>
      <point x="580" y="681" type="line"/>
      <point x="548" y="707"/>
      <point x="486" y="732"/>
      <point x="394" y="732" type="curve" smooth="yes"/>
      <point x="262" y="732"/>
      <point x="162" y="686"/>
      <point x="162" y="559" type="curve" smooth="yes"/>
      <point x="162" y="64" type="line"/>
      <point x="162" y="35"/>
      <point x="123" y="28"/>
      <point x="59" y="28" type="curve" smooth="yes"/>
      <point x="46" y="28" type="line"/>
    </contour>
    <contour>
      <point x="426" y="0" type="line"/>
      <point x="709" y="0" type="line"/>
      <point x="709" y="28" type="line"/>
      <point x="694" y="28" type="line" smooth="yes"/>
      <point x="630" y="28"/>
      <point x="582" y="31"/>
      <point x="582" y="38" type="curve"/>
      <point x="582" y="595" type="line" smooth="yes"/>
      <point x="582" y="694"/>
      <point x="638" y="721"/>
      <point x="753" y="721" type="curve" smooth="yes"/>
      <point x="821" y="721"/>
      <point x="890" y="706"/>
      <point x="945" y="671" type="curve"/>
      <point x="953" y="711" type="line"/>
      <point x="910" y="727"/>
      <point x="847" y="752"/>
      <point x="753" y="752" type="curve" smooth="yes"/>
      <point x="619" y="752"/>
      <point x="541" y="709"/>
      <point x="541" y="595" type="curve"/>
      <point x="541" y="38" type="line"/>
      <point x="541" y="31"/>
      <point x="493" y="28"/>
      <point x="429" y="28" type="curve" smooth="yes"/>
      <point x="426" y="28" type="line"/>
    </contour>
    <contour>
      <point x="1305" y="38" type="line" smooth="yes"/>
      <point x="1305" y="31"/>
      <point x="1252" y="28"/>
      <point x="1220" y="28" type="curve" smooth="yes"/>
      <point x="1217" y="28" type="line"/>
      <point x="1217" y="0" type="line"/>
      <point x="1444" y="0" type="line"/>
      <point x="1444" y="28" type="line"/>
      <point x="1441" y="28" type="line" smooth="yes"/>
      <point x="1385" y="28"/>
      <point x="1346" y="35"/>
      <point x="1346" y="64" type="curve" smooth="yes"/>
      <point x="1346" y="357" type="line" smooth="yes"/>
      <point x="1346" y="468"/>
      <point x="1283" y="518"/>
      <point x="1174" y="518" type="curve" smooth="yes"/>
      <point x="1072" y="518"/>
      <point x="999" y="468"/>
      <point x="927" y="365" type="curve"/>
      <point x="936" y="334" type="line"/>
      <point x="999" y="427"/>
      <point x="1070" y="484"/>
      <point x="1167" y="484" type="curve" smooth="yes"/>
      <point x="1269" y="484"/>
      <point x="1305" y="441"/>
      <point x="1305" y="346" type="curve" smooth="yes"/>
    </contour>
    <contour>
      <point x="824" y="0" type="line"/>
      <point x="1049" y="0" type="line"/>
      <point x="1049" y="28" type="line"/>
      <point x="1046" y="28" type="line" smooth="yes"/>
      <point x="1013" y="28"/>
      <point x="962" y="31"/>
      <point x="962" y="38" type="curve"/>
      <point x="962" y="735" type="line"/>
      <point x="861" y="735" type="line"/>
      <point x="921" y="703" type="line"/>
      <point x="921" y="38" type="line"/>
      <point x="921" y="31"/>
      <point x="869" y="28"/>
      <point x="836" y="28" type="curve" smooth="yes"/>
      <point x="824" y="28" type="line"/>
    </contour>
    <contour>
      <point x="40" y="508" type="line"/>
      <point x="40" y="480" type="line"/>
      <point x="518" y="480" type="line"/>
      <point x="518" y="508" type="line"/>
    </contour>
    <contour>
      <point x="420" y="508" type="line"/>
      <point x="420" y="480" type="line"/>
      <point x="772" y="480" type="line"/>
      <point x="772" y="508" type="line"/>
    </contour>
  </outline>
</glyph>
<glyph name="f_f_l.alt" format="2">
  <advance width="1103"/>
  <outline>
    <contour>
      <point x="40" y="508" type="line"/>
      <point x="40" y="480" type="line"/>
      <point x="518" y="480" type="line"/>
      <point x="518" y="508" type="line"/>
    </contour>
    <contour>
      <point x="420" y="508" type="line"/>
      <point x="420" y="480" type="line"/>
      <point x="772" y="480" type="line"/>
      <point x="772" y="508" type="line"/>
    </contour>
    <contour>
      <point x="709" y="0" type="line"/>
      <point x="709" y="28" type="line"/>
      <point x="694" y="28" type="line" smooth="yes"/>
      <point x="630" y="28"/>
      <point x="582" y="31"/>
      <point x="582" y="38" type="curve" smooth="yes"/>
      <point x="582" y="595" type="line" smooth="yes"/>
      <point x="582" y="694"/>
      <point x="638" y="721"/>
      <point x="753" y="721" type="curve" smooth="yes"/>
      <point x="821" y="721"/>
      <point x="890" y="706"/>
      <point x="945" y="671" type="curve"/>
      <point x="953" y="711" type="line"/>
      <point x="910" y="727"/>
      <point x="847" y="752"/>
      <point x="753" y="752" type="curve" smooth="yes"/>
      <point x="619" y="752"/>
      <point x="541" y="709"/>
      <point x="541" y="595" type="curve"/>
      <point x="541" y="38" type="line" smooth="yes"/>
      <point x="541" y="31"/>
      <point x="493" y="28"/>
      <point x="429" y="28" type="curve" smooth="yes"/>
      <point x="426" y="28" type="line"/>
      <point x="426" y="0" type="line"/>
    </contour>
    <contour>
      <point x="1060" y="0" type="line"/>
      <point x="1060" y="28" type="line"/>
      <point x="1057" y="28" type="line" smooth="yes"/>
      <point x="1002" y="28"/>
      <point x="962" y="35"/>
      <point x="962" y="64" type="curve" smooth="yes"/>
      <point x="962" y="735" type="line"/>
      <point x="859" y="735" type="line"/>
      <point x="921" y="703" type="line"/>
      <point x="921" y="38" type="line" smooth="yes"/>
      <point x="921" y="31"/>
      <point x="869" y="28"/>
      <point x="836" y="28" type="curve" smooth="yes"/>
      <point x="823" y="28" type="line"/>
      <point x="823" y="0" type="line"/>
    </contour>
    <contour>
      <point x="46" y="0" type="line"/>
      <point x="331" y="0" type="line"/>
      <point x="331" y="28" type="line"/>
      <point x="315" y="28" type="line" smooth="yes"/>
      <point x="251" y="28"/>
      <point x="203" y="31"/>
      <point x="203" y="38" type="curve" smooth="yes"/>
      <point x="203" y="559" type="line" smooth="yes"/>
      <point x="203" y="670"/>
      <point x="292" y="701"/>
      <point x="393" y="701" type="curve" smooth="yes"/>
      <point x="466" y="701"/>
      <point x="531" y="683"/>
      <point x="571" y="636" type="curve"/>
      <point x="577" y="678"/>
      <point x="564" y="680"/>
      <point x="541" y="691" type="curve"/>
      <point x="541" y="568" type="line"/>
      <point x="580" y="618" type="line"/>
      <point x="580" y="681" type="line"/>
      <point x="548" y="707"/>
      <point x="486" y="732"/>
      <point x="393" y="732" type="curve" smooth="yes"/>
      <point x="262" y="732"/>
      <point x="162" y="686"/>
      <point x="162" y="559" type="curve" smooth="yes"/>
      <point x="162" y="64" type="line"/>
      <point x="162" y="35"/>
      <point x="123" y="28"/>
      <point x="59" y="28" type="curve" smooth="yes"/>
      <point x="46" y="28" type="line"/>
    </contour>
  </outline>
</glyph>
<glyph name="f_h" format="2">
  <advance width="1097"/>
  <outline>
    <contour>
      <point x="40" y="508" type="line"/>
      <point x="40" y="480" type="line"/>
      <point x="393" y="480" type="line"/>
      <point x="393" y="508" type="line"/>
    </contour>
    <contour>
      <point x="838" y="0" type="line"/>
      <point x="1064" y="0" type="line"/>
      <point x="1064" y="28" type="line"/>
      <point x="1061" y="28" type="line" smooth="yes"/>
      <point x="1005" y="28"/>
      <point x="966" y="35"/>
      <point x="966" y="64" type="curve" smooth="yes"/>
      <point x="966" y="357" type="line" smooth="yes"/>
      <point x="966" y="468"/>
      <point x="903" y="518"/>
      <point x="795" y="518" type="curve" smooth="yes"/>
      <point x="692" y="518"/>
      <point x="620" y="468"/>
      <point x="547" y="365" type="curve"/>
      <point x="556" y="334" type="line"/>
      <point x="620" y="427"/>
      <point x="691" y="484"/>
      <point x="787" y="484" type="curve" smooth="yes"/>
      <point x="889" y="484"/>
      <point x="925" y="441"/>
      <point x="925" y="346" type="curve" smooth="yes"/>
      <point x="925" y="38" type="line" smooth="yes"/>
      <point x="925" y="31"/>
      <point x="872" y="28"/>
      <point x="840" y="28" type="curve" smooth="yes"/>
      <point x="838" y="28" type="line"/>
    </contour>
    <contour>
      <point x="444" y="0" type="line"/>
      <point x="669" y="0" type="line"/>
      <point x="669" y="28" type="line"/>
      <point x="666" y="28" type="line" smooth="yes"/>
      <point x="634" y="28"/>
      <point x="582" y="31"/>
      <point x="582" y="38" type="curve"/>
      <point x="582" y="735" type="line"/>
      <point x="481" y="735" type="line"/>
      <point x="541" y="703" type="line"/>
      <point x="541" y="38" type="line"/>
      <point x="541" y="31"/>
      <point x="489" y="28"/>
      <point x="456" y="28" type="curve" smooth="yes"/>
      <point x="444" y="28" type="line"/>
    </contour>
    <contour>
      <point x="46" y="0" type="line"/>
      <point x="329" y="0" type="line"/>
      <point x="329" y="28" type="line"/>
      <point x="314" y="28" type="line" smooth="yes"/>
      <point x="251" y="28"/>
      <point x="203" y="31"/>
      <point x="203" y="38" type="curve"/>
      <point x="203" y="595" type="line" smooth="yes"/>
      <point x="203" y="694"/>
      <point x="258" y="721"/>
      <point x="373" y="721" type="curve" smooth="yes"/>
      <point x="442" y="721"/>
      <point x="510" y="706"/>
      <point x="565" y="671" type="curve"/>
      <point x="574" y="711" type="line"/>
      <point x="531" y="727"/>
      <point x="467" y="752"/>
      <point x="373" y="752" type="curve" smooth="yes"/>
      <point x="240" y="752"/>
      <point x="162" y="709"/>
      <point x="162" y="595" type="curve" smooth="yes"/>
      <point x="162" y="64" type="line" smooth="yes"/>
      <point x="162" y="35"/>
      <point x="123" y="28"/>
      <point x="59" y="28" type="curve" smooth="yes"/>
      <point x="46" y="28" type="line"/>
    </contour>
  </outline>
</glyph>
<glyph name="five.lintab" format="2">
  <advance width="652"/>
  <outline>
    <contour>
      <point x="329" y="-10" type="curve" smooth="yes"/>
      <point x="185" y="-10"/>
      <point x="104" y="54"/>
      <point x="65" y="136" type="curve"/>
      <point x="97" y="153" type="line"/>
      <point x="134" y="78"/>
      <point x="206" y="21"/>
      <point x="329" y="21" type="curve" smooth="yes"/>
      <point x="477" y="21"/>
      <point x="562" y="111"/>
      <point x="562" y="241" type="curve" smooth="yes"/>
      <point x="562" y="365"/>
      <point x="468" y="440"/>
      <point x="355" y="440" type="curve" smooth="yes"/>
      <point x="257" y="440"/>
      <point x="191" y="406"/>
      <point x="137" y="345" type="curve"/>
      <point x="110" y="345" type="line"/>
      <point x="110" y="710" type="line"/>
      <point x="555" y="710" type="line"/>
      <point x="543" y="672" type="line"/>
      <point x="127" y="672" type="line"/>
      <point x="143" y="690" type="line"/>
      <point x="143" y="371" type="line"/>
      <point x="140" y="361"/>
      <point x="135" y="352"/>
      <point x="122" y="365" type="curve"/>
      <point x="173" y="427"/>
      <point x="248" y="471"/>
      <point x="356" y="471" type="curve" smooth="yes"/>
      <point x="516" y="471"/>
      <point x="606" y="361"/>
      <point x="606" y="241" type="curve" smooth="yes"/>
      <point x="606" y="98"/>
      <point x="502" y="-10"/>
    </contour>
  </outline>
</glyph>
<glyph name="florin" format="2">
  <advance width="652"/>
  <outline>
    <contour>
      <point x="184" y="508" type="line"/>
      <point x="179" y="477" type="line"/>
      <point x="594" y="477" type="line"/>
      <point x="600" y="508" type="line"/>
    </contour>
    <contour>
      <point x="336" y="574" type="curve" smooth="yes"/>
      <point x="254" y="57" type="line" smooth="yes"/>
      <point x="223" y="-142"/>
      <point x="145" y="-205"/>
      <point x="51" y="-205" type="curve" smooth="yes"/>
      <point x="1" y="-205"/>
      <point x="-41" y="-191"/>
      <point x="-66" y="-182" type="curve"/>
      <point x="-73" y="-216" type="line"/>
      <point x="-49" y="-226"/>
      <point x="-8" y="-236"/>
      <point x="51" y="-236" type="curve" smooth="yes"/>
      <point x="174" y="-236"/>
      <point x="256" y="-155"/>
      <point x="291" y="56" type="curve" smooth="yes"/>
      <point x="376" y="568" type="line" smooth="yes"/>
      <point x="396" y="682"/>
      <point x="454" y="721"/>
      <point x="545" y="721" type="curve" smooth="yes"/>
      <point x="584" y="721"/>
      <point x="619" y="711"/>
      <point x="658" y="699" type="curve"/>
      <point x="664" y="734" type="line"/>
      <point x="634" y="746"/>
      <point x="585" y="753"/>
      <point x="543" y="753" type="curve" smooth="yes"/>
      <point x="427" y="753"/>
      <point x="357" y="696"/>
    </contour>
  </outline>
</glyph>
<glyph name="four.oldprop" format="2">
  <advance width="646"/>
  <outline>
    <contour>
      <point x="50" y="51" type="line"/>
      <point x="628" y="51" type="line"/>
      <point x="628" y="86" type="line"/>
      <point x="71" y="86" type="line"/>
      <point x="75" y="64" type="line"/>
      <point x="462" y="542" type="line"/>
      <point x="476" y="548" type="line"/>
      <point x="422" y="548" type="line"/>
      <point x="50" y="90" type="line"/>
    </contour>
    <contour>
      <point x="484" y="-138" type="line"/>
      <point x="484" y="548" type="line"/>
      <point x="443" y="548" type="line"/>
      <point x="446" y="528" type="line"/>
      <point x="446" y="-138" type="line"/>
    </contour>
  </outline>
</glyph>
<glyph name="heartsuitwhite" format="2">
  <advance width="1050"/>
  <outline>
    <contour>
      <point x="520" y="461" type="curve"/>
      <point x="531" y="461" type="line"/>
      <point x="567" y="541"/>
      <point x="641" y="641"/>
      <point x="747" y="641" type="curve" smooth="yes"/>
      <point x="834" y="641"/>
      <point x="883" y="594"/>
      <point x="883" y="528" type="curve" smooth="yes"/>
      <point x="883" y="446"/>
      <point x="835" y="397"/>
      <point x="757" y="316" type="curve" smooth="yes"/>
      <point x="530" y="83" type="line"/>
      <point x="520" y="83" type="line"/>
      <point x="292" y="316" type="line" smooth="yes"/>
      <point x="214" y="397"/>
      <point x="167" y="446"/>
      <point x="167" y="528" type="curve" smooth="yes"/>
      <point x="167" y="594"/>
      <point x="215" y="641"/>
      <point x="303" y="641" type="curve" smooth="yes"/>
      <point x="409" y="641"/>
      <point x="482" y="541"/>
    </contour>
    <contour>
      <point x="538" y="-10" type="line"/>
      <point x="815" y="273" type="line" smooth="yes"/>
      <point x="913" y="375"/>
      <point x="968" y="437"/>
      <point x="968" y="535" type="curve" smooth="yes"/>
      <point x="968" y="632"/>
      <point x="891" y="710"/>
      <point x="756" y="710" type="curve" smooth="yes"/>
      <point x="648" y="710"/>
      <point x="570" y="657"/>
      <point x="525" y="569" type="curve"/>
      <point x="480" y="657"/>
      <point x="402" y="710"/>
      <point x="294" y="710" type="curve" smooth="yes"/>
      <point x="159" y="710"/>
      <point x="82" y="632"/>
      <point x="82" y="535" type="curve" smooth="yes"/>
      <point x="82" y="437"/>
      <point x="136" y="375"/>
      <point x="236" y="273" type="curve" smooth="yes"/>
      <point x="512" y="-10" type="line"/>
    </contour>
  </outline>
</glyph>
<glyph name="kip.proportional" format="2">
  <advance width="752"/>
  <outline>
    <contour>
      <point x="52" y="386" type="line"/>
      <point x="52" y="356" type="line"/>
      <point x="635" y="356" type="line"/>
      <point x="635" y="386" type="line"/>
    </contour>
    <contour>
      <point x="52" y="0" type="line"/>
      <point x="317" y="0" type="line"/>
      <point x="317" y="31" type="line"/>
      <point x="306" y="31" type="line" smooth="yes"/>
      <point x="262" y="31"/>
      <point x="205" y="34"/>
      <point x="205" y="41" type="curve" smooth="yes"/>
      <point x="205" y="669" type="line" smooth="yes"/>
      <point x="205" y="676"/>
      <point x="262" y="679"/>
      <point x="306" y="679" type="curve" smooth="yes"/>
      <point x="317" y="679" type="line"/>
      <point x="317" y="710" type="line"/>
      <point x="52" y="710" type="line"/>
      <point x="52" y="679" type="line"/>
      <point x="65" y="679" type="line" smooth="yes"/>
      <point x="122" y="679"/>
      <point x="164" y="672"/>
      <point x="164" y="643" type="curve" smooth="yes"/>
      <point x="164" y="67" type="line" smooth="yes"/>
      <point x="164" y="38"/>
      <point x="122" y="31"/>
      <point x="65" y="31" type="curve" smooth="yes"/>
      <point x="52" y="31" type="line"/>
    </contour>
    <contour>
      <point x="480" y="0" type="line"/>
      <point x="733" y="0" type="line"/>
      <point x="733" y="31" type="line"/>
      <point x="720" y="31" type="line" smooth="yes"/>
      <point x="668" y="31"/>
      <point x="646" y="34"/>
      <point x="616" y="64" type="curve" smooth="yes"/>
      <point x="311" y="383" type="line"/>
      <point x="302" y="358" type="line"/>
      <point x="607" y="650" type="line" smooth="yes"/>
      <point x="632" y="673"/>
      <point x="657" y="679"/>
      <point x="699" y="679" type="curve" smooth="yes"/>
      <point x="718" y="679" type="line"/>
      <point x="718" y="710" type="line"/>
      <point x="475" y="710" type="line"/>
      <point x="475" y="679" type="line"/>
      <point x="486" y="679" type="line" smooth="yes"/>
      <point x="530" y="679"/>
      <point x="578" y="676"/>
      <point x="580" y="669" type="curve"/>
      <point x="266" y="367" type="line"/>
      <point x="279" y="362" type="line"/>
      <point x="590" y="41" type="line"/>
      <point x="590" y="34"/>
      <point x="534" y="31"/>
      <point x="491" y="31" type="curve" smooth="yes"/>
      <point x="480" y="31" type="line"/>
    </contour>
  </outline>
</glyph>
<glyph name="lira.alt" format="2">
  <advance width="652"/>
  <outline>
    <contour>
      <point x="58" y="0" type="line"/>
      <point x="597" y="0" type="line"/>
      <point x="597" y="169" type="line"/>
      <point x="569" y="169" type="line"/>
      <point x="559" y="74" type="line" smooth="yes"/>
      <point x="555" y="38"/>
      <point x="513" y="31"/>
      <point x="413" y="31" type="curve" smooth="yes"/>
      <point x="90" y="31" type="line"/>
      <point x="103" y="22" type="line"/>
      <point x="206" y="68"/>
      <point x="262" y="138"/>
      <point x="262" y="222" type="curve" smooth="yes"/>
      <point x="262" y="332"/>
      <point x="161" y="411"/>
      <point x="161" y="528" type="curve" smooth="yes"/>
      <point x="161" y="631"/>
      <point x="244" y="687"/>
      <point x="360" y="687" type="curve" smooth="yes"/>
      <point x="451" y="687"/>
      <point x="511" y="656"/>
      <point x="542" y="631" type="curve"/>
      <point x="542" y="641"/>
      <point x="528" y="657"/>
      <point x="517" y="671" type="curve"/>
      <point x="517" y="575" type="line"/>
      <point x="569" y="575" type="line"/>
      <point x="569" y="661" type="line"/>
      <point x="537" y="683"/>
      <point x="470" y="718"/>
      <point x="360" y="718" type="curve" smooth="yes"/>
      <point x="218" y="718"/>
      <point x="117" y="643"/>
      <point x="117" y="528" type="curve" smooth="yes"/>
      <point x="117" y="402"/>
      <point x="223" y="313"/>
      <point x="223" y="222" type="curve" smooth="yes"/>
      <point x="223" y="125"/>
      <point x="159" y="78"/>
      <point x="58" y="36" type="curve"/>
    </contour>
    <contour>
      <point x="51" y="429" type="line"/>
      <point x="51" y="398" type="line"/>
      <point x="462" y="398" type="line"/>
      <point x="462" y="429" type="line"/>
    </contour>
    <contour>
      <point x="51" y="274" type="line"/>
      <point x="51" y="243" type="line"/>
      <point x="462" y="243" type="line"/>
      <point x="462" y="274" type="line"/>
    </contour>
  </outline>
</glyph>
<glyph name="liraTurkish" format="2">
  <advance width="654"/>
  <outline>
    <contour>
      <point x="48" y="378" type="line"/>
      <point x="48" y="347" type="line"/>
      <point x="511" y="525" type="line"/>
      <point x="511" y="556" type="line"/>
    </contour>
    <contour>
      <point x="48" y="213" type="line"/>
      <point x="48" y="182" type="line"/>
      <point x="511" y="360" type="line"/>
      <point x="511" y="391" type="line"/>
    </contour>
    <contour>
      <point x="316" y="31" type="curve" smooth="yes"/>
      <point x="200" y="31" type="line"/>
      <point x="200" y="643" type="line" smooth="yes"/>
      <point x="200" y="672"/>
      <point x="243" y="679"/>
      <point x="304" y="679" type="curve" smooth="yes"/>
      <point x="317" y="679" type="line"/>
      <point x="317" y="710" type="line"/>
      <point x="48" y="710" type="line"/>
      <point x="48" y="679" type="line"/>
      <point x="60" y="679" type="line" smooth="yes"/>
      <point x="118" y="679"/>
      <point x="160" y="672"/>
      <point x="160" y="643" type="curve" smooth="yes"/>
      <point x="160" y="67" type="line" smooth="yes"/>
      <point x="160" y="38"/>
      <point x="118" y="31"/>
      <point x="60" y="31" type="curve" smooth="yes"/>
      <point x="48" y="31" type="line"/>
      <point x="48" y="0" type="line"/>
      <point x="314" y="0" type="line" smooth="yes"/>
      <point x="527" y="0"/>
      <point x="634" y="102"/>
      <point x="644" y="269" type="curve"/>
      <point x="599" y="282" type="line"/>
      <point x="592" y="121"/>
      <point x="510" y="31"/>
    </contour>
  </outline>
</glyph>
<glyph name="nine.oldprop" format="2">
  <advance width="656"/>
  <outline>
    <contour>
      <point x="116" y="-121" type="line"/>
      <point x="374" y="-105"/>
      <point x="545" y="45"/>
      <point x="545" y="275" type="curve" smooth="yes"/>
      <point x="545" y="444"/>
      <point x="453" y="527"/>
      <point x="319" y="527" type="curve" smooth="yes"/>
      <point x="180" y="527"/>
      <point x="98" y="439"/>
      <point x="98" y="329" type="curve" smooth="yes"/>
      <point x="98" y="225"/>
      <point x="176" y="147"/>
      <point x="303" y="147" type="curve" smooth="yes"/>
      <point x="418" y="147"/>
      <point x="511" y="222"/>
      <point x="562" y="310" type="curve"/>
      <point x="575" y="286" type="line"/>
      <point x="527" y="199"/>
      <point x="426" y="116"/>
      <point x="300" y="116" type="curve" smooth="yes"/>
      <point x="152" y="116"/>
      <point x="54" y="204"/>
      <point x="54" y="329" type="curve" smooth="yes"/>
      <point x="54" y="453"/>
      <point x="164" y="558"/>
      <point x="319" y="558" type="curve" smooth="yes"/>
      <point x="472" y="558"/>
      <point x="589" y="454"/>
      <point x="589" y="275" type="curve" smooth="yes"/>
      <point x="589" y="35"/>
      <point x="400" y="-136"/>
      <point x="121" y="-152" type="curve"/>
    </contour>
  </outline>
</glyph>
<glyph name="one.linprop" format="2">
  <advance width="593"/>
  <outline>
    <contour>
      <point x="352" y="64" type="curve" smooth="yes"/>
      <point x="352" y="710" type="line"/>
      <point x="328" y="710" type="line"/>
      <point x="288" y="658"/>
      <point x="206" y="636"/>
      <point x="118" y="634" type="curve"/>
      <point x="118" y="603" type="line"/>
      <point x="198" y="601"/>
      <point x="296" y="627"/>
      <point x="318" y="673" type="curve"/>
      <point x="311" y="672" type="line"/>
      <point x="311" y="64" type="line" smooth="yes"/>
      <point x="311" y="35"/>
      <point x="265" y="28"/>
      <point x="189" y="28" type="curve" smooth="yes"/>
      <point x="129" y="28" type="line"/>
      <point x="129" y="0" type="line"/>
      <point x="526" y="0" type="line"/>
      <point x="526" y="28" type="line"/>
      <point x="486" y="28" type="line" smooth="yes"/>
      <point x="403" y="28"/>
      <point x="352" y="35"/>
    </contour>
  </outline>
</glyph>
<glyph name="one.oldtab" format="2">
  <advance width="652"/>
  <outline>
    <contour>
      <point x="391" y="64" type="curve" smooth="yes"/>
      <point x="391" y="548" type="line"/>
      <point x="367" y="548" type="line"/>
      <point x="328" y="496"/>
      <point x="246" y="474"/>
      <point x="139" y="472" type="curve"/>
      <point x="139" y="441" type="line"/>
      <point x="238" y="439"/>
      <point x="336" y="465"/>
      <point x="358" y="511" type="curve"/>
      <point x="351" y="510" type="line"/>
      <point x="351" y="64" type="line" smooth="yes"/>
      <point x="351" y="35"/>
      <point x="304" y="28"/>
      <point x="229" y="28" type="curve" smooth="yes"/>
      <point x="150" y="28" type="line"/>
      <point x="150" y="0" type="line"/>
      <point x="585" y="0" type="line"/>
      <point x="585" y="28" type="line"/>
      <point x="526" y="28" type="line" smooth="yes"/>
      <point x="443" y="28"/>
      <point x="391" y="35"/>
    </contour>
  </outline>
</glyph>
<glyph name="rupeeIndian" format="2">
  <advance width="654"/>
  <outline>
    <contour>
      <point x="87" y="507" type="line"/>
      <point x="87" y="477" type="line"/>
      <point x="637" y="477" type="line"/>
      <point x="637" y="507" type="line"/>
    </contour>
    <contour>
      <point x="123" y="273" type="line"/>
      <point x="177" y="273" type="line" smooth="yes"/>
      <point x="357" y="273"/>
      <point x="472" y="362"/>
      <point x="472" y="496" type="curve" smooth="yes"/>
      <point x="472" y="592"/>
      <point x="410" y="667"/>
      <point x="282" y="685" type="curve"/>
      <point x="240" y="679" type="line"/>
      <point x="637" y="679" type="line"/>
      <point x="637" y="710" type="line"/>
      <point x="87" y="710" type="line"/>
      <point x="87" y="674" type="line"/>
      <point x="189" y="674" type="line" smooth="yes"/>
      <point x="345" y="674"/>
      <point x="428" y="607"/>
      <point x="428" y="496" type="curve" smooth="yes"/>
      <point x="428" y="380"/>
      <point x="349" y="304"/>
      <point x="177" y="304" type="curve" smooth="yes"/>
      <point x="87" y="304" type="line"/>
      <point x="87" y="277" type="line"/>
      <point x="438" y="0" type="line"/>
      <point x="549" y="0" type="line"/>
      <point x="549" y="31" type="line"/>
      <point x="533" y="31" type="line" smooth="yes"/>
      <point x="482" y="31"/>
      <point x="450" y="38"/>
      <point x="420" y="60" type="curve" smooth="yes"/>
      <point x="111" y="296" type="line"/>
    </contour>
  </outline>
</glyph>
<glyph name="rupeeIndian.proportional" format="2">
  <advance width="735"/>
  <outline>
    <contour>
      <point x="90" y="507" type="line"/>
      <point x="90" y="477" type="line"/>
      <point x="668" y="477" type="line"/>
      <point x="668" y="507" type="line"/>
    </contour>
    <contour>
      <point x="123" y="273" type="line"/>
      <point x="193" y="273" type="line" smooth="yes"/>
      <point x="389" y="273"/>
      <point x="503" y="362"/>
      <point x="503" y="496" type="curve" smooth="yes"/>
      <point x="503" y="592"/>
      <point x="442" y="667"/>
      <point x="301" y="685" type="curve"/>
      <point x="259" y="679" type="line"/>
      <point x="668" y="679" type="line"/>
      <point x="668" y="710" type="line"/>
      <point x="90" y="710" type="line"/>
      <point x="90" y="674" type="line"/>
      <point x="208" y="674" type="line" smooth="yes"/>
      <point x="377" y="674"/>
      <point x="460" y="607"/>
      <point x="460" y="496" type="curve" smooth="yes"/>
      <point x="460" y="380"/>
      <point x="380" y="304"/>
      <point x="195" y="304" type="curve" smooth="yes"/>
      <point x="90" y="304" type="line"/>
      <point x="90" y="277" type="line"/>
      <point x="474" y="0" type="line"/>
      <point x="584" y="0" type="line"/>
      <point x="584" y="31" type="line"/>
      <point x="567" y="31" type="line" smooth="yes"/>
      <point x="516" y="31"/>
      <point x="486" y="39"/>
      <point x="455" y="60" type="curve" smooth="yes"/>
      <point x="115" y="296" type="line"/>
    </contour>
  </outline>
</glyph>
<glyph name="six.oldprop" format="2">
  <advance width="654"/>
  <outline>
    <contour>
      <point x="514" y="709" type="line"/>
      <point x="279" y="673"/>
      <point x="111" y="507"/>
      <point x="111" y="287" type="curve" smooth="yes"/>
      <point x="111" y="112"/>
      <point x="198" y="21"/>
      <point x="342" y="21" type="curve" smooth="yes"/>
      <point x="477" y="21"/>
      <point x="555" y="116"/>
      <point x="555" y="234" type="curve" smooth="yes"/>
      <point x="555" y="345"/>
      <point x="484" y="428"/>
      <point x="355" y="428" type="curve" smooth="yes"/>
      <point x="240" y="428"/>
      <point x="148" y="354"/>
      <point x="93" y="266" type="curve"/>
      <point x="81" y="290" type="line"/>
      <point x="130" y="377"/>
      <point x="233" y="459"/>
      <point x="358" y="459" type="curve" smooth="yes"/>
      <point x="508" y="459"/>
      <point x="599" y="366"/>
      <point x="599" y="234" type="curve" smooth="yes"/>
      <point x="599" y="102"/>
      <point x="494" y="-10"/>
      <point x="342" y="-10" type="curve" smooth="yes"/>
      <point x="178" y="-10"/>
      <point x="66" y="102"/>
      <point x="66" y="287" type="curve" smooth="yes"/>
      <point x="66" y="507"/>
      <point x="242" y="704"/>
      <point x="508" y="740" type="curve"/>
    </contour>
  </outline>
</glyph>
<glyph name="sterling.alt" format="2">
  <advance width="652"/>
  <outline>
    <contour>
      <point x="51" y="0" type="line"/>
      <point x="588" y="0" type="line"/>
      <point x="588" y="170" type="line"/>
      <point x="560" y="170" type="line"/>
      <point x="549" y="74" type="line" smooth="yes"/>
      <point x="546" y="38"/>
      <point x="504" y="31"/>
      <point x="403" y="31" type="curve"/>
      <point x="83" y="31" type="line"/>
      <point x="93" y="27" type="line"/>
      <point x="200" y="68"/>
      <point x="255" y="138"/>
      <point x="255" y="222" type="curve" smooth="yes"/>
      <point x="255" y="332"/>
      <point x="154" y="411"/>
      <point x="154" y="528" type="curve" smooth="yes"/>
      <point x="154" y="631"/>
      <point x="237" y="687"/>
      <point x="351" y="687" type="curve" smooth="yes"/>
      <point x="436" y="687"/>
      <point x="485" y="657"/>
      <point x="518" y="631" type="curve"/>
      <point x="518" y="641"/>
      <point x="505" y="657"/>
      <point x="494" y="671" type="curve"/>
      <point x="494" y="571" type="line"/>
      <point x="545" y="571" type="line"/>
      <point x="545" y="661" type="line"/>
      <point x="512" y="684"/>
      <point x="452" y="718"/>
      <point x="351" y="718" type="curve" smooth="yes"/>
      <point x="211" y="718"/>
      <point x="110" y="643"/>
      <point x="110" y="528" type="curve" smooth="yes"/>
      <point x="110" y="402"/>
      <point x="216" y="313"/>
      <point x="216" y="222" type="curve" smooth="yes"/>
      <point x="216" y="125"/>
      <point x="152" y="78"/>
      <point x="51" y="36" type="curve"/>
    </contour>
    <contour>
      <point x="34" y="353" type="line"/>
      <point x="34" y="322" type="line"/>
      <point x="462" y="322" type="line"/>
      <point x="462" y="353" type="line"/>
    </contour>
  </outline>
</glyph>
<glyph name="sterling.altprop" format="2">
  <advance width="688"/>
  <outline>
    <contour>
      <point x="42" y="353" type="line"/>
      <point x="42" y="322" type="line"/>
      <point x="491" y="322" type="line"/>
      <point x="491" y="353" type="line"/>
    </contour>
    <contour>
      <point x="161" y="528" type="curve" smooth="yes"/>
      <point x="161" y="631"/>
      <point x="247" y="687"/>
      <point x="366" y="687" type="curve" smooth="yes"/>
      <point x="456" y="687"/>
      <point x="516" y="656"/>
      <point x="548" y="631" type="curve"/>
      <point x="548" y="641"/>
      <point x="533" y="657"/>
      <point x="523" y="671" type="curve"/>
      <point x="523" y="573" type="line"/>
      <point x="574" y="573" type="line"/>
      <point x="574" y="661" type="line"/>
      <point x="542" y="683"/>
      <point x="477" y="718"/>
      <point x="366" y="718" type="curve" smooth="yes"/>
      <point x="222" y="718"/>
      <point x="116" y="643"/>
      <point x="116" y="528" type="curve" smooth="yes"/>
      <point x="116" y="402"/>
      <point x="223" y="313"/>
      <point x="223" y="222" type="curve" smooth="yes"/>
      <point x="223" y="125"/>
      <point x="159" y="78"/>
      <point x="57" y="36" type="curve"/>
      <point x="57" y="0" type="line"/>
      <point x="618" y="0" type="line"/>
      <point x="618" y="170" type="line"/>
      <point x="589" y="170" type="line"/>
      <point x="579" y="74" type="line" smooth="yes"/>
      <point x="576" y="38"/>
      <point x="534" y="31"/>
      <point x="433" y="31" type="curve"/>
      <point x="90" y="31" type="line"/>
      <point x="100" y="25" type="line"/>
      <point x="206" y="68"/>
      <point x="262" y="138"/>
      <point x="262" y="222" type="curve" smooth="yes"/>
      <point x="262" y="332"/>
      <point x="161" y="411"/>
    </contour>
  </outline>
</glyph>
<glyph name="three.lintab" format="2">
  <advance width="652"/>
  <outline>
    <contour>
      <point x="325" y="379" type="line"/>
      <point x="509" y="379"/>
      <point x="593" y="300"/>
      <point x="593" y="196" type="curve" smooth="yes"/>
      <point x="593" y="76"/>
      <point x="480" y="-10"/>
      <point x="326" y="-10" type="curve" smooth="yes"/>
      <point x="175" y="-10"/>
      <point x="79" y="60"/>
      <point x="36" y="161" type="curve"/>
      <point x="68" y="177" type="line"/>
      <point x="103" y="95"/>
      <point x="183" y="21"/>
      <point x="326" y="21" type="curve" smooth="yes"/>
      <point x="459" y="21"/>
      <point x="548" y="85"/>
      <point x="548" y="196" type="curve" smooth="yes"/>
      <point x="548" y="296"/>
      <point x="473" y="358"/>
      <point x="302" y="358" type="curve" smooth="yes"/>
      <point x="230" y="358" type="line"/>
      <point x="230" y="389" type="line"/>
      <point x="301" y="389" type="line" smooth="yes"/>
      <point x="421" y="389"/>
      <point x="511" y="439"/>
      <point x="511" y="538" type="curve" smooth="yes"/>
      <point x="511" y="644"/>
      <point x="430" y="687"/>
      <point x="327" y="687" type="curve" smooth="yes"/>
      <point x="222" y="687"/>
      <point x="157" y="649"/>
      <point x="126" y="615" type="curve"/>
      <point x="129" y="641"/>
      <point x="151" y="665"/>
      <point x="151" y="667" type="curve"/>
      <point x="151" y="564" type="line"/>
      <point x="99" y="564" type="line"/>
      <point x="99" y="644" type="line"/>
      <point x="134" y="673"/>
      <point x="205" y="718"/>
      <point x="327" y="718" type="curve" smooth="yes"/>
      <point x="460" y="718"/>
      <point x="555" y="651"/>
      <point x="555" y="550" type="curve" smooth="yes"/>
      <point x="555" y="427"/>
      <point x="429" y="369"/>
      <point x="304" y="369" type="curve"/>
      <point x="382" y="382" type="line"/>
      <point x="382" y="368" type="line"/>
    </contour>
  </outline>
</glyph>
<glyph name="two.oldtab" format="2">
  <advance width="652"/>
  <outline>
    <contour>
      <point x="588" y="0" type="line"/>
      <point x="74" y="0" type="line"/>
      <point x="74" y="39" type="line"/>
      <point x="315" y="167"/>
      <point x="509" y="227"/>
      <point x="509" y="387" type="curve" smooth="yes"/>
      <point x="509" y="484"/>
      <point x="439" y="527"/>
      <point x="336" y="527" type="curve" smooth="yes"/>
      <point x="246" y="527"/>
      <point x="178" y="494"/>
      <point x="127" y="451" type="curve"/>
      <point x="146" y="482"/>
      <point x="135" y="486"/>
      <point x="162" y="491" type="curve"/>
      <point x="162" y="392" type="line"/>
      <point x="111" y="392" type="line"/>
      <point x="111" y="483" type="line"/>
      <point x="154" y="515"/>
      <point x="230" y="558"/>
      <point x="336" y="558" type="curve" smooth="yes"/>
      <point x="459" y="558"/>
      <point x="553" y="502"/>
      <point x="553" y="387" type="curve" smooth="yes"/>
      <point x="553" y="220"/>
      <point x="328" y="138"/>
      <point x="111" y="27" type="curve"/>
      <point x="107" y="29"/>
      <point x="104" y="30"/>
      <point x="106" y="33" type="curve"/>
      <point x="588" y="33" type="line"/>
    </contour>
  </outline>
</glyph>
<glyph name="whitedownpointingtriangle" format="2">
  <advance width="752"/>
  <outline>
    <contour>
      <point x="64" y="464" type="line"/>
      <point x="375" y="91" type="line"/>
      <point x="687" y="464" type="line"/>
    </contour>
    <contour>
      <point x="369" y="175" type="line"/>
      <point x="382" y="175" type="line"/>
      <point x="171" y="430" type="line"/>
      <point x="163" y="414" type="line"/>
      <point x="588" y="414" type="line"/>
      <point x="580" y="430" type="line"/>
    </contour>
  </outline>
</glyph>
<glyph name="zero.linprop" format="2">
  <advance width="707"/>
  <outline>
    <contour>
      <point x="353" y="-11" type="curve" smooth="yes"/>
      <point x="532" y="-11"/>
      <point x="649" y="132"/>
      <point x="649" y="356" type="curve" smooth="yes"/>
      <point x="649" y="577"/>
      <point x="532" y="720"/>
      <point x="353" y="720" type="curve" smooth="yes"/>
      <point x="175" y="720"/>
      <point x="59" y="577"/>
      <point x="59" y="356" type="curve" smooth="yes"/>
      <point x="59" y="132"/>
      <point x="175" y="-11"/>
    </contour>
    <contour>
      <point x="353" y="20" type="curve" smooth="yes"/>
      <point x="189" y="20"/>
      <point x="103" y="145"/>
      <point x="103" y="356" type="curve" smooth="yes"/>
      <point x="103" y="563"/>
      <point x="189" y="689"/>
      <point x="353" y="689" type="curve" smooth="yes"/>
      <point x="519" y="689"/>
      <point x="605" y="563"/>
      <point x="605" y="356" type="curve" smooth="yes"/>
      <point x="605" y="143"/>
      <point x="519" y="20"/>
    </contour>
  </outline>
</glyph>
<glyph name="zero.midprop" format="2">
  <advance width="685"/>
  <outline>
    <contour>
      <point x="342" y="-11" type="curve" smooth="yes"/>
      <point x="513" y="-11"/>
      <point x="627" y="117"/>
      <point x="627" y="305" type="curve" smooth="yes"/>
      <point x="627" y="491"/>
      <point x="513" y="619"/>
      <point x="342" y="619" type="curve" smooth="yes"/>
      <point x="173" y="619"/>
      <point x="59" y="491"/>
      <point x="59" y="305" type="curve" smooth="yes"/>
      <point x="59" y="117"/>
      <point x="173" y="-11"/>
    </contour>
    <contour>
      <point x="342" y="20" type="curve" smooth="yes"/>
      <point x="186" y="20"/>
      <point x="102" y="131"/>
      <point x="102" y="305" type="curve" smooth="yes"/>
      <point x="102" y="476"/>
      <point x="186" y="588"/>
      <point x="342" y="588" type="curve" smooth="yes"/>
      <point x="499" y="588"/>
      <point x="583" y="476"/>
      <point x="583" y="305" type="curve" smooth="yes"/>
      <point x="583" y="130"/>
      <point x="499" y="20"/>
    </contour>
  </outline>
</glyph>
<glyph name="zero.propslash" format="2">
  <advance width="683"/>
  <outline>
    <contour>
      <point x="140" y="130" type="line"/>
      <point x="560" y="451" type="line"/>
      <point x="546" y="479" type="line"/>
      <point x="123" y="155" type="line"/>
    </contour>
    <contour>
      <point x="342" y="-11" type="curve" smooth="yes"/>
      <point x="511" y="-11"/>
      <point x="625" y="117"/>
      <point x="625" y="305" type="curve" smooth="yes"/>
      <point x="625" y="491"/>
      <point x="511" y="619"/>
      <point x="342" y="619" type="curve" smooth="yes"/>
      <point x="172" y="619"/>
      <point x="59" y="491"/>
      <point x="59" y="305" type="curve" smooth="yes"/>
      <point x="59" y="117"/>
      <point x="172" y="-11"/>
    </contour>
    <contour>
      <point x="342" y="20" type="curve" smooth="yes"/>
      <point x="186" y="20"/>
      <point x="103" y="131"/>
      <point x="103" y="305" type="curve" smooth="yes"/>
      <point x="103" y="476"/>
      <point x="186" y="588"/>
      <point x="342" y="588" type="curve" smooth="yes"/>
      <point x="498" y="588"/>
      <point x="581" y="476"/>
      <point x="581" y="305" type="curve" smooth="yes"/>
      <point x="581" y="130"/>
      <point x="498" y="20"/>
    </contour>
  </outline>
</glyph>
<glyph name="zero.slash" format="2">
  <advance width="652"/>
  <outline>
    <contour>
      <point x="125" y="130" type="line"/>
      <point x="547" y="451" type="line"/>
      <point x="533" y="479" type="line"/>
      <point x="108" y="155" type="line"/>
    </contour>
    <contour>
      <point x="326" y="-11" type="curve" smooth="yes"/>
      <point x="484" y="-11"/>
      <point x="605" y="122"/>
      <point x="605" y="304" type="curve" smooth="yes"/>
      <point x="605" y="486"/>
      <point x="484" y="619"/>
      <point x="326" y="619" type="curve" smooth="yes"/>
      <point x="168" y="619"/>
      <point x="47" y="486"/>
      <point x="47" y="304" type="curve" smooth="yes"/>
      <point x="47" y="122"/>
      <point x="168" y="-11"/>
    </contour>
    <contour>
      <point x="326" y="20" type="curve" smooth="yes"/>
      <point x="183" y="20"/>
      <point x="91" y="135"/>
      <point x="91" y="304" type="curve" smooth="yes"/>
      <point x="91" y="472"/>
      <point x="183" y="588"/>
      <point x="326" y="588" type="curve" smooth="yes"/>
      <point x="469" y="588"/>
      <point x="561" y="472"/>
      <point x="561" y="304" type="curve" smooth="yes"/>
      <point x="561" y="134"/>
      <point x="469" y="20"/>
    </contour>
  </outline>
</glyph>
<glyph name="zero.slashold" format="2">
  <advance width="652"/>
  <outline>
    <contour>
      <point x="326" y="20" type="curve" smooth="yes"/>
      <point x="177" y="20"/>
      <point x="92" y="119"/>
      <point x="92" y="274" type="curve" smooth="yes"/>
      <point x="92" y="427"/>
      <point x="177" y="527"/>
      <point x="326" y="527" type="curve" smooth="yes"/>
      <point x="475" y="527"/>
      <point x="561" y="427"/>
      <point x="561" y="274" type="curve" smooth="yes"/>
      <point x="561" y="118"/>
      <point x="475" y="20"/>
    </contour>
    <contour>
      <point x="125" y="99" type="line"/>
      <point x="547" y="420" type="line"/>
      <point x="533" y="448" type="line"/>
      <point x="108" y="124" type="line"/>
    </contour>
    <contour>
      <point x="326" y="-11" type="curve" smooth="yes"/>
      <point x="490" y="-11"/>
      <point x="605" y="105"/>
      <point x="605" y="274" type="curve" smooth="yes"/>
      <point x="605" y="442"/>
      <point x="490" y="558"/>
      <point x="326" y="558" type="curve" smooth="yes"/>
      <point x="163" y="558"/>
      <point x="48" y="442"/>
      <point x="48" y="274" type="curve" smooth="yes"/>
      <point x="48" y="105"/>
      <point x="163" y="-11"/>
    </contour>
  </outline>
</glyph>
<glyph name="zero.slasholdprop" format="2">
  <advance width="683"/>
  <outline>
    <contour>
      <point x="342" y="20" type="curve" smooth="yes"/>
      <point x="186" y="20"/>
      <point x="103" y="119"/>
      <point x="103" y="274" type="curve" smooth="yes"/>
      <point x="103" y="427"/>
      <point x="186" y="527"/>
      <point x="342" y="527" type="curve" smooth="yes"/>
      <point x="498" y="527"/>
      <point x="581" y="427"/>
      <point x="581" y="274" type="curve" smooth="yes"/>
      <point x="581" y="118"/>
      <point x="498" y="20"/>
    </contour>
    <contour>
      <point x="139" y="99" type="line"/>
      <point x="561" y="420" type="line"/>
      <point x="547" y="448" type="line"/>
      <point x="121" y="124" type="line"/>
    </contour>
    <contour>
      <point x="342" y="-11" type="curve" smooth="yes"/>
      <point x="512" y="-11"/>
      <point x="625" y="105"/>
      <point x="625" y="274" type="curve" smooth="yes"/>
      <point x="625" y="442"/>
      <point x="512" y="558"/>
      <point x="342" y="558" type="curve" smooth="yes"/>
      <point x="172" y="558"/>
      <point x="59" y="442"/>
      <point x="59" y="274" type="curve" smooth="yes"/>
      <point x="59" y="105"/>
      <point x="172" y="-11"/>
    </contour>
  </outline>
</glyph>
